<?xml version="1.0" encoding="UTF-8"?>
<svg id="Final_Designs" data-name="Final Designs" xmlns="http://www.w3.org/2000/svg" viewBox="0 0 1000 1000">
  <defs>
    <style>
      .cls-1 {
        fill: #fff;
      }

      .cls-2 {
        fill: none;
      }
    </style>
  </defs>
  <g id="Mono_White_Trans_BG" data-name="Mono White Trans BG">
    <g id="Icon_Mark_Mono_White_Trans_BG_" data-name="Icon Mark (Mono White Trans BG)">
      <rect class="cls-2" width="1000" height="1000"/>
      <g>
        <g>
          <path class="cls-1" d="M635.61,362.62c1.25,12.68-1.92,25.71-9.49,36.58,12.07,39.36,2.53,83.91-28.6,115.04-20.35,20.35-46.42,31.47-73.02,33.36-4.29,8.42-9.94,16.2-16.82,23.07-17.24,17.24-40.17,26.74-64.55,26.74-2.15,0-4.29-.07-6.42-.22,58.66,25.08,129.19,13.68,177.06-34.19,54.42-54.42,61.7-138.12,21.84-200.38Zm-85.58-39.49c9.1-6.36,19.9-9.78,31.23-9.78,1.79,0,3.56,.09,5.31,.26-62.25-39.82-145.93-32.52-200.33,21.88-47.87,47.87-59.27,118.41-34.18,177.08-.15-2.13-.22-4.28-.22-6.44,0-24.39,9.49-47.31,26.74-64.55,6.87-6.87,14.65-12.52,23.07-16.81,1.89-26.61,13.01-52.68,33.35-73.03,31.13-31.13,75.68-40.66,115.03-28.6Z"/>
          <path class="cls-1" d="M414.32,581.25c-10.24-3.91-19.83-10-28.08-18.25-8.25-8.25-14.33-17.84-18.24-28.08,11.68,.57,23.18,5.31,32.1,14.23,8.92,8.92,13.66,20.43,14.23,32.1Z"/>
          <path class="cls-1" d="M500,449.24c-31.41-31.42-82.34-31.42-113.76,0-21.99,22-28.58,53.56-19.78,81.29,13.3,.22,26.54,5.4,36.69,15.56,10.15,10.15,15.34,23.39,15.56,36.69,27.73,8.81,59.29,2.21,81.28-19.78,31.42-31.41,31.42-82.34,0-113.76Zm-17.27,56.57c-.22,1.21-1.29,2.1-2.54,2.1-.63,0-1.21-.23-1.66-.61-.45-.38-.77-.93-.87-1.55-2.77-17.14-16.31-30.69-33.46-33.46-1.25-.2-2.17-1.27-2.17-2.53,0-.62,.22-1.2,.59-1.66,.38-.45,.9-.77,1.5-.88,1.9-.34,3.85-.51,5.85-.51,18.3,0,33.27,14.96,33.27,33.26,0,2-.17,3.96-.51,5.86Z"/>
          <path class="cls-1" d="M612.46,334.23c-9.64,6.12-22.56,4.97-30.97-3.44-2.49-2.49-4.35-5.39-5.55-8.47,12.91-1.5,26.33,2.47,36.52,11.91Z"/>
          <path class="cls-1" d="M616,369.91c-8.29-8.29-10.34-20.46-6.15-30.67-10.21,4.2-22.37,2.15-30.66-6.15-3-3.01-5.18-6.51-6.54-10.26-8.76,1.66-17.12,5.88-23.9,12.65-17.95,17.95-17.95,47.06,0,65,17.95,17.95,47.06,17.95,65.01,0,6.8-6.8,11.02-15.18,12.67-23.97-3.8-1.36-7.38-3.56-10.43-6.61Zm-34.48,19.71c-1.63,.4-3.34,.59-5.11,.51-9.67-.4-17.43-8.6-17.32-18.29,.02-1.42,.2-2.81,.53-4.14,.17-.66,.76-1.13,1.45-1.13s1.32,.51,1.45,1.2c1.74,9.62,9.32,17.21,18.94,18.94,.69,.13,1.2,.74,1.2,1.45s-.47,1.29-1.14,1.45Z"/>
          <path class="cls-1" d="M626.93,373.22c-3.15-1.2-6.09-3.08-8.63-5.62-8.41-8.41-9.56-21.33-3.44-30.98,9.52,10.19,13.54,23.65,12.07,36.59Z"/>
          <path class="cls-1" d="M389.14,573.12c-2.47-2.47-4.75-5.07-6.83-7.76-.64,1.32-3.62,7-8.55,8.41,0,0-6.35,2.47-7.14,7.14,0,0-.96-5.15,6.04-8.86,1.17-.4,2.51-.98,3.92-1.82,2.65-1.58,4.49-3.46,5.68-4.92-1.97-2.55-3.75-5.18-5.37-7.9l-11.53,2.69c-12.07,2.82-22.43,16.92-10.75,28.6,0,0-2.75-6.54,1.14-11.66-.39,2.05-.85,6.01,.48,10.69,.46,1.59,1.04,3.02,1.68,4.26,1.42,2.77,3.1,4.66,4.12,5.7,0,0-.22-.82-.03-1.74,.13-.69,.49-1.42,1.32-1.92,0,0,1.59,4.31,5.7,5.43,.01,0,.01,0,.03,0,.69,.14,1.39,.22,2.08,.25,.03,.01,.07,0,.12,0-.21-.1-2.5-1.3-2.47-2.85,.14,.22,1.92,3.03,6.46,2.39,6.68-1.78,12.25-8.29,13.9-15.38l2.05-8.79c-.69-.63-1.38-1.29-2.05-1.97Zm-21.63-2.06c.17-.4,3.28-7.4,10.61-5.76,0,0-6.48,.67-10.61,5.76Zm-7.35,.2s5.89-11.7,18.06-9.02c-.59,0-10.73,0-18.06,9.02Zm18.45,6.95s2.6-1.37,3.54-3.72c0,0-.3,3.2-2.86,4.51,0,0-2.9,1.45-2.68,3.72,0,0-1.09-2.56,1.99-4.51Zm-3.35,10.46c9.35-6.88,9.86-17.02,9.88-17.58,2.03,12.05-9.44,17.39-9.88,17.58Z"/>
          <path class="cls-1" d="M604.12,308.34c-.05-.01-.1-.03-.16-.04l-.5-.14c-1.01-.18-1.53,.27-1.53,.27,2.99,2.7,1.11,7.08,.98,7.4,1.32-5.46-3.65-8.76-3.65-8.76-5.86-.77-8.47,5.46-7.11,10.2l.94,3.28c3.32,.79,6.56,1.95,9.67,3.49h0l3.15-2.87c3.86-3.52,4.8-10.82-1.79-12.81Zm-6.41,1.5c-.05,.2-.74,2.86,1.94,5.18-.19-.07-3.89-1.61-1.94-5.18Zm4.12,10c.06-.43,.8-6.18-3.41-9.8,.3,.15,6.04,3.19,3.41,9.8Z"/>
          <path class="cls-1" d="M641.87,348.78v-.04c-.15-.48-.82-2.43-2.37-3.24,0,0,1.12-.04,1.76,1.13l-.43-1.5c-1.94-6.75-9.32-5.81-12.86-1.89l-3.38,3.74c1.22,2.83,2.15,5.75,2.77,8.72l4.56,1.29c5.01,1.42,11.68-1.61,9.96-8.21Zm-15.12-.07c.03-.2,.59-4.16,4.53-3.17-.14,0-2.93-.05-4.53,3.17Zm8.33-.48c-.17-.09-3.72-1.87-7.72,1.29,.12-.2,3.26-4.99,7.72-1.29Zm-7.1,4.76s5.75,2.18,10.32-1.36c-.14,.19-4.31,5.32-10.32,1.36Z"/>
        </g>
        <g>
          <path class="cls-1" d="M442,711.04c-5.13-25.48-34.81-53.43-55.17-68.2-1.39,10.18,2.9,46.55,33.22,62.08-29.86-4.29-69.31,10.69-76.19,15,34.14,15.36,79.38,14.86,98.14-8.88Z"/>
          <path class="cls-1" d="M389.48,694.18c.45-24.51-22.09-58.88-37.61-76.3-3.74,10.29-7.82,44.9,19.26,66.68-30.54-11.89-70.02-5.33-77.05-3.04,29.67,23.14,73.25,31,95.39,12.66Z"/>
          <path class="cls-1" d="M343.95,666.46c4.79-23.24-10.7-61.21-22.15-79.48-10.05,17.54-11.08,47.54,7.5,68.02-28.95-17.73-66.07-18.58-74.02-17.7,25.1,28.93,65.59,42.21,88.67,29.16Z"/>
          <path class="cls-1" d="M303.69,630.67c9.39-20.47,3.51-60.37-4.84-81.27-7.88,9.48-23.18,38.33-5.78,68.35-23.73-23.42-55.66-31.91-68.02-33.09,19.42,34.9,56.07,52.91,78.64,46.01Z"/>
          <path class="cls-1" d="M272.19,585.99c14.01-18.93,12.97-62.14,10.26-80.43-15.28,11.38-28.14,33.71-21.86,57.71-13.88-20.05-44.83-37.26-55.46-41.29,10.77,41.79,45.08,66.23,67.05,64Z"/>
          <path class="cls-1" d="M248.99,533.23c12.34-10.88,25.86-43.86,26.18-70.19-19.86,10.79-33.31,31.32-29.75,58.02-8.46-21.22-22.01-41.61-45.42-55.6,2.44,36.85,28.29,65.79,48.99,67.78Z"/>
          <path class="cls-1" d="M238.46,481.39c13.8-6.96,34.3-35.22,38.71-63.46-21.58,8.36-36.82,25.6-39.25,52.35-3.37-21.84-10.49-42.35-33.33-61.56-3.55,34.62,15.98,66.48,33.88,72.67Z"/>
          <path class="cls-1" d="M239.04,427.09c14.06-3.27,39.65-25.44,48.66-53.12-22.15,4.98-38.75,17.73-47,43.73,1.62-24.88-3.05-44.06-19.95-64.43-9.79,32.95,4.72,65.5,18.29,73.82Z"/>
          <path class="cls-1" d="M248.77,379.18c12.14-.06,41.85-14.8,55.78-41.98-22.59,1.49-39.47,10.45-52.74,34.27,7.21-27.23,3.93-44.72-7.37-65.03-15.3,29.86-6.13,63.22,4.33,72.74Z"/>
          <path class="cls-1" d="M268.64,332.07c11.46,2.29,42.33-5.88,60.71-28.81-21.59-2.96-39.24,2.23-56.35,22.13,12.05-24.28,12.34-41.42,5.61-62.74-20.2,25.2-17.99,58.43-9.97,69.43Z"/>
          <path class="cls-1" d="M428.78,660.76c.63,9.68,12.9,45.38,44.52,54.64-31.36,2.21-65.97,25.74-70.9,30.73,39.86,8.25,83.44-3.19,95.33-29.33-11.93-24.93-44.01-44.53-68.95-56.05Z"/>
          <path class="cls-1" d="M296.12,293.5c21.06,.72,37.1-21.96,43.32-42.28-22.4,3.04-45.98,21.31-43.32,42.28Z"/>
        </g>
        <g>
          <path class="cls-1" d="M558,711.04c5.13-25.48,34.81-53.43,55.17-68.2,1.39,10.18-2.9,46.55-33.22,62.08,29.86-4.29,69.31,10.69,76.19,15-34.14,15.36-79.38,14.86-98.14-8.88Z"/>
          <path class="cls-1" d="M610.52,694.18c-.45-24.51,22.09-58.88,37.61-76.3,3.74,10.29,7.82,44.9-19.26,66.68,30.54-11.89,70.02-5.33,77.05-3.04-29.67,23.14-73.25,31-95.39,12.66Z"/>
          <path class="cls-1" d="M656.05,666.46c-4.79-23.24,10.7-61.21,22.15-79.48,10.05,17.54,11.08,47.54-7.5,68.02,28.95-17.73,66.07-18.58,74.02-17.7-25.1,28.93-65.59,42.21-88.67,29.16Z"/>
          <path class="cls-1" d="M696.31,630.67c-9.39-20.47-3.51-60.37,4.84-81.27,7.88,9.48,23.18,38.33,5.78,68.35,23.73-23.42,55.66-31.91,68.02-33.09-19.42,34.9-56.07,52.91-78.64,46.01Z"/>
          <path class="cls-1" d="M727.81,585.99c-14.01-18.93-12.97-62.14-10.26-80.43,15.28,11.38,28.14,33.71,21.86,57.71,13.88-20.05,44.83-37.26,55.46-41.29-10.77,41.79-45.08,66.23-67.05,64Z"/>
          <path class="cls-1" d="M751.01,533.23c-12.34-10.88-25.86-43.86-26.18-70.19,19.86,10.79,33.31,31.32,29.75,58.02,8.46-21.22,22.01-41.61,45.42-55.6-2.44,36.85-28.29,65.79-48.99,67.78Z"/>
          <path class="cls-1" d="M761.54,481.39c-13.8-6.96-34.3-35.22-38.71-63.46,21.58,8.36,36.82,25.6,39.25,52.35,3.37-21.84,10.49-42.35,33.33-61.56,3.55,34.62-15.98,66.48-33.88,72.67Z"/>
          <path class="cls-1" d="M760.96,427.09c-14.06-3.27-39.65-25.44-48.66-53.12,22.15,4.98,38.75,17.73,47,43.73-1.62-24.88,3.05-44.06,19.95-64.43,9.79,32.95-4.72,65.5-18.29,73.82Z"/>
          <path class="cls-1" d="M751.23,379.18c-12.14-.06-41.85-14.8-55.78-41.98,22.59,1.49,39.47,10.45,52.74,34.27-7.21-27.23-3.93-44.72,7.37-65.03,15.3,29.86,6.13,63.22-4.33,72.74Z"/>
          <path class="cls-1" d="M731.36,332.07c-11.46,2.29-42.33-5.88-60.71-28.81,21.59-2.96,39.24,2.23,56.35,22.13-12.05-24.28-12.34-41.42-5.61-62.74,20.2,25.2,17.99,58.43,9.97,69.43Z"/>
          <path class="cls-1" d="M571.22,660.76c-.63,9.68-12.9,45.38-44.52,54.64,31.36,2.21,65.97,25.74,70.9,30.73-39.86,8.25-83.44-3.19-95.33-29.33,11.93-24.93,44.01-44.53,68.95-56.05Z"/>
          <path class="cls-1" d="M703.88,293.5c-21.06,.72-37.1-21.96-43.32-42.28,22.4,3.04,45.98,21.31,43.32,42.28Z"/>
        </g>
      </g>
    </g>
  </g>
</svg>