<?xml version="1.0" encoding="UTF-8"?>
<svg id="Final_Designs" data-name="Final Designs" xmlns="http://www.w3.org/2000/svg" viewBox="0 0 1000 1000">
  <defs>
    <style>
      .cls-1 {
        fill: #fac63b;
      }

      .cls-2 {
        fill: #033631;
      }
    </style>
  </defs>
  <g id="Colour">
    <g id="Sub_Mark_Colour_" data-name="Sub Mark (Colour)">
      <rect class="cls-2" width="1000" height="1000"/>
      <g>
        <g>
          <path class="cls-1" d="M635.61,354.82c1.25,12.68-1.92,25.71-9.49,36.58,12.07,39.36,2.53,83.91-28.6,115.04-20.35,20.35-46.42,31.47-73.02,33.36-4.29,8.42-9.94,16.2-16.82,23.07-17.24,17.24-40.17,26.74-64.55,26.74-2.15,0-4.29-.07-6.42-.22,58.66,25.08,129.19,13.68,177.06-34.19,54.42-54.42,61.7-138.12,21.84-200.38Zm-85.58-39.49c9.1-6.36,19.9-9.78,31.23-9.78,1.79,0,3.56,.09,5.31,.26-62.25-39.82-145.93-32.52-200.33,21.88-47.87,47.87-59.27,118.41-34.18,177.08-.15-2.13-.22-4.28-.22-6.44,0-24.39,9.49-47.31,26.74-64.55,6.87-6.87,14.65-12.52,23.07-16.81,1.89-26.61,13.01-52.68,33.35-73.03,31.13-31.13,75.68-40.66,115.03-28.6Z"/>
          <path class="cls-1" d="M414.32,573.45c-10.24-3.91-19.83-10-28.08-18.25-8.25-8.25-14.33-17.84-18.24-28.08,11.68,.57,23.18,5.31,32.1,14.23,8.92,8.92,13.66,20.43,14.23,32.1Z"/>
          <path class="cls-1" d="M500,441.44c-31.41-31.42-82.34-31.42-113.76,0-21.99,22-28.58,53.56-19.78,81.29,13.3,.22,26.54,5.4,36.69,15.56,10.15,10.15,15.34,23.39,15.56,36.69,27.73,8.81,59.29,2.21,81.28-19.78,31.42-31.41,31.42-82.34,0-113.76Zm-17.27,56.57c-.22,1.21-1.29,2.1-2.54,2.1-.63,0-1.21-.23-1.66-.61-.45-.38-.77-.93-.87-1.55-2.77-17.14-16.31-30.69-33.46-33.46-1.25-.2-2.17-1.27-2.17-2.53,0-.62,.22-1.2,.59-1.66,.38-.45,.9-.77,1.5-.88,1.9-.34,3.85-.51,5.85-.51,18.3,0,33.27,14.96,33.27,33.26,0,2-.17,3.96-.51,5.86Z"/>
          <path class="cls-1" d="M612.46,326.43c-9.64,6.12-22.56,4.97-30.97-3.44-2.49-2.49-4.35-5.39-5.55-8.47,12.91-1.5,26.33,2.47,36.52,11.91Z"/>
          <path class="cls-1" d="M616,362.11c-8.29-8.29-10.34-20.46-6.15-30.67-10.21,4.2-22.37,2.15-30.66-6.15-3-3.01-5.18-6.51-6.54-10.26-8.76,1.66-17.12,5.88-23.9,12.65-17.95,17.95-17.95,47.06,0,65,17.95,17.95,47.06,17.95,65.01,0,6.8-6.8,11.02-15.18,12.67-23.97-3.8-1.36-7.38-3.56-10.43-6.61Zm-34.48,19.71c-1.63,.4-3.34,.59-5.11,.51-9.67-.4-17.43-8.6-17.32-18.29,.02-1.42,.2-2.81,.53-4.14,.17-.66,.76-1.13,1.45-1.13s1.32,.51,1.45,1.2c1.74,9.62,9.32,17.21,18.94,18.94,.69,.13,1.2,.74,1.2,1.45s-.47,1.29-1.14,1.45Z"/>
          <path class="cls-1" d="M626.93,365.42c-3.15-1.2-6.09-3.08-8.63-5.62-8.41-8.41-9.56-21.33-3.44-30.98,9.52,10.19,13.54,23.65,12.07,36.59Z"/>
          <path class="cls-1" d="M389.14,565.32c-2.47-2.47-4.75-5.07-6.83-7.76-.64,1.32-3.62,7-8.55,8.41,0,0-6.35,2.47-7.14,7.14,0,0-.96-5.15,6.04-8.86,1.17-.4,2.51-.98,3.92-1.82,2.65-1.58,4.49-3.46,5.68-4.92-1.97-2.55-3.75-5.18-5.37-7.9l-11.53,2.69c-12.07,2.82-22.43,16.92-10.75,28.6,0,0-2.75-6.54,1.14-11.66-.39,2.05-.85,6.01,.48,10.69,.46,1.59,1.04,3.02,1.68,4.26,1.42,2.77,3.1,4.66,4.12,5.7,0,0-.22-.82-.03-1.74,.13-.69,.49-1.42,1.32-1.92,0,0,1.59,4.31,5.7,5.43,.01,0,.01,0,.03,0,.69,.14,1.39,.22,2.08,.25,.03,.01,.07,0,.12,0-.21-.1-2.5-1.3-2.47-2.85,.14,.22,1.92,3.03,6.46,2.39,6.68-1.78,12.25-8.29,13.9-15.38l2.05-8.79c-.69-.63-1.38-1.29-2.05-1.97Zm-21.63-2.06c.17-.4,3.28-7.4,10.61-5.76,0,0-6.48,.67-10.61,5.76Zm-7.35,.2s5.89-11.7,18.06-9.02c-.59,0-10.73,0-18.06,9.02Zm18.45,6.95s2.6-1.37,3.54-3.72c0,0-.3,3.2-2.86,4.51,0,0-2.9,1.45-2.68,3.72,0,0-1.09-2.56,1.99-4.51Zm-3.35,10.46c9.35-6.88,9.86-17.02,9.88-17.58,2.03,12.05-9.44,17.39-9.88,17.58Z"/>
          <path class="cls-1" d="M604.12,300.54c-.05-.01-.1-.03-.16-.04l-.5-.14c-1.01-.18-1.53,.27-1.53,.27,2.99,2.7,1.11,7.08,.98,7.4,1.32-5.46-3.65-8.76-3.65-8.76-5.86-.77-8.47,5.46-7.11,10.2l.94,3.28c3.32,.79,6.56,1.95,9.67,3.49h0l3.15-2.87c3.86-3.52,4.8-10.82-1.79-12.81Zm-6.41,1.5c-.05,.2-.74,2.86,1.94,5.18-.19-.07-3.89-1.61-1.94-5.18Zm4.12,10c.06-.43,.8-6.18-3.41-9.8,.3,.15,6.04,3.19,3.41,9.8Z"/>
          <path class="cls-1" d="M641.87,340.98v-.04c-.15-.48-.82-2.43-2.37-3.24,0,0,1.12-.04,1.76,1.13l-.43-1.5c-1.94-6.75-9.32-5.81-12.86-1.89l-3.38,3.74c1.22,2.83,2.15,5.75,2.77,8.72l4.56,1.29c5.01,1.42,11.68-1.61,9.96-8.21Zm-15.12-.07c.03-.2,.59-4.16,4.53-3.17-.14,0-2.93-.05-4.53,3.17Zm8.33-.48c-.17-.09-3.72-1.87-7.72,1.29,.12-.2,3.26-4.99,7.72-1.29Zm-7.1,4.76s5.75,2.18,10.32-1.36c-.14,.19-4.31,5.32-10.32,1.36Z"/>
        </g>
        <path class="cls-1" d="M765.03,585.61c-.76,1.56-1.53,3.11-2.32,4.65-14.01,27.56-32.24,52.62-54.33,74.71-27.06,27.06-58.58,48.32-93.67,63.16-36.33,15.36-74.93,23.15-114.71,23.15s-78.38-7.79-114.71-23.15c-35.09-14.85-66.61-36.1-93.68-63.16-22.1-22.1-40.31-47.16-54.33-74.71-.89-1.75-1.76-3.51-2.61-5.28-1.67,.61-3.34,1.21-5.01,1.82,.56,1.16,1.12,2.31,1.7,3.46,49.15,98.6,150.98,166.33,268.64,166.33s219.49-67.73,268.64-166.33c.47-.94,.94-1.89,1.39-2.83-1.67-.61-3.34-1.21-5-1.82Z"/>
        <path class="cls-1" d="M691.72,558.93c-6.82,11.12-14.59,21.6-23.2,31.33-41.18,46.62-101.42,76.02-168.52,76.02s-127.34-29.4-168.52-76.02c-8.74-9.87-16.61-20.52-23.51-31.83-1.7,.61-3.4,1.23-5.1,1.84,6.36,10.55,13.56,20.55,21.58,29.99,4.07,4.79,8.35,9.43,12.83,13.91,21.13,21.13,45.74,37.72,73.15,49.32,28.37,12,58.51,18.09,89.58,18.09s61.2-6.09,89.58-18.09c27.41-11.59,52.01-28.19,73.15-49.32,4.48-4.48,8.76-9.12,12.82-13.91,7.89-9.27,14.99-19.12,21.27-29.47-1.7-.61-3.4-1.23-5.1-1.85Z"/>
        <g>
          <path class="cls-1" d="M272.19,578.19c14.01-18.93,12.97-62.14,10.26-80.43-15.28,11.38-28.14,33.71-21.86,57.71-13.88-20.05-44.83-37.26-55.46-41.29,10.77,41.79,45.08,66.23,67.05,64Z"/>
          <path class="cls-1" d="M248.99,525.43c12.34-10.88,25.86-43.86,26.18-70.19-19.86,10.79-33.31,31.32-29.75,58.02-8.46-21.22-22.01-41.61-45.42-55.6,2.44,36.85,28.29,65.79,48.99,67.78Z"/>
          <path class="cls-1" d="M238.46,473.59c13.8-6.96,34.3-35.22,38.71-63.46-21.58,8.36-36.82,25.6-39.25,52.35-3.37-21.84-10.49-42.35-33.33-61.56-3.55,34.62,15.98,66.48,33.88,72.67Z"/>
          <path class="cls-1" d="M239.04,419.3c14.06-3.27,39.65-25.44,48.66-53.12-22.15,4.98-38.75,17.73-47,43.73,1.62-24.88-3.05-44.06-19.95-64.43-9.79,32.95,4.72,65.5,18.29,73.82Z"/>
          <path class="cls-1" d="M248.77,371.38c12.14-.06,41.85-14.8,55.78-41.98-22.59,1.49-39.47,10.45-52.74,34.27,7.21-27.23,3.93-44.72-7.37-65.03-15.3,29.86-6.13,63.22,4.33,72.74Z"/>
          <path class="cls-1" d="M268.64,324.27c11.46,2.29,42.33-5.88,60.71-28.81-21.59-2.96-39.24,2.23-56.35,22.13,12.05-24.28,12.34-41.42,5.61-62.74-20.2,25.2-17.99,58.43-9.97,69.43Z"/>
          <path class="cls-1" d="M296.12,285.7c21.06,.72,37.1-21.96,43.32-42.28-22.4,3.04-45.98,21.31-43.32,42.28Z"/>
        </g>
        <g>
          <path class="cls-1" d="M727.81,578.19c-14.01-18.93-12.97-62.14-10.26-80.43,15.28,11.38,28.14,33.71,21.86,57.71,13.88-20.05,44.83-37.26,55.46-41.29-10.77,41.79-45.08,66.23-67.05,64Z"/>
          <path class="cls-1" d="M751.01,525.43c-12.34-10.88-25.86-43.86-26.18-70.19,19.86,10.79,33.31,31.32,29.75,58.02,8.46-21.22,22.01-41.61,45.42-55.6-2.44,36.85-28.29,65.79-48.99,67.78Z"/>
          <path class="cls-1" d="M761.54,473.59c-13.8-6.96-34.3-35.22-38.71-63.46,21.58,8.36,36.82,25.6,39.25,52.35,3.37-21.84,10.49-42.35,33.33-61.56,3.55,34.62-15.98,66.48-33.88,72.67Z"/>
          <path class="cls-1" d="M760.96,419.3c-14.06-3.27-39.65-25.44-48.66-53.12,22.15,4.98,38.75,17.73,47,43.73-1.62-24.88,3.05-44.06,19.95-64.43,9.79,32.95-4.72,65.5-18.29,73.82Z"/>
          <path class="cls-1" d="M751.23,371.38c-12.14-.06-41.85-14.8-55.78-41.98,22.59,1.49,39.47,10.45,52.74,34.27-7.21-27.23-3.93-44.72,7.37-65.03,15.3,29.86,6.13,63.22-4.33,72.74Z"/>
          <path class="cls-1" d="M731.36,324.27c-11.46,2.29-42.33-5.88-60.71-28.81,21.59-2.96,39.24,2.23,56.35,22.13-12.05-24.28-12.34-41.42-5.61-62.74,20.2,25.2,17.99,58.43,9.97,69.43Z"/>
          <path class="cls-1" d="M703.88,285.7c-21.06,.72-37.1-21.96-43.32-42.28,22.4,3.04,45.98,21.31,43.32,42.28Z"/>
        </g>
        <g>
          <path class="cls-1" d="M288.83,627.65l-3.76-4.88,4.19-10.24-1.91-2.48-7.58,5.84-3.22-4.17,20.82-16.06,6.15,7.97c1.78,2.31,2.5,4.57,2.17,6.78-.34,2.21-1.42,4.02-3.27,5.44-1.39,1.07-2.91,1.67-4.57,1.79-1.66,.12-3.26-.31-4.8-1.31l-4.23,11.3Zm10.82-21.05l-2.91-3.78-5.64,4.35,2.63,3.41c.81,1.05,1.69,1.65,2.65,1.8,.95,.15,1.85-.1,2.7-.75,.81-.62,1.28-1.4,1.4-2.32,.13-.92-.15-1.82-.83-2.71Z"/>
          <path class="cls-1" d="M307.62,648.02l-3.8-4.05,2.82-5.32-6.28-6.7-5.54,2.41-3.77-4.02,26.05-10.66,2.94,3.14-12.42,25.2Zm1.42-13.67l4.29-8.22-8.53,3.7,4.23,4.52Z"/>
          <path class="cls-1" d="M315.67,655.4l-3.96-3.36,17.01-20.05,2.66,2.26-1.78,18.04,17.43-4.76,2.71,2.3-17.01,20.05-4.02-3.41,9.64-11.37-12.95,3.44-1.38-1.17,1.28-13.33-9.64,11.37Z"/>
          <path class="cls-1" d="M357.5,686.7l-4.62-3.08,1.54-5.82-7.63-5.1-4.85,3.61-4.59-3.06,22.95-16.29,3.58,2.39-6.38,27.36Zm-1.71-13.64l2.32-8.98-7.47,5.54,5.15,3.44Z"/>
          <path class="cls-1" d="M382.23,688.64l7.57-14.39,4.6,2.42-12.23,23.28-3.18-1.67-4.56-20.61-7.5,14.27-4.6-2.42,12.24-23.27,2.96,1.56,4.72,20.85Z"/>
          <path class="cls-1" d="M389.33,702.99l10.36-24.17,4.87,2.09-10.36,24.17-4.87-2.09Z"/>
          <path class="cls-1" d="M408.36,710.96c-1.95-.69-3.61-1.72-4.98-3.11-1.37-1.39-2.3-3-2.79-4.83l4.07-2.45c.84,2.89,2.63,4.81,5.36,5.77,1.03,.36,1.97,.42,2.81,.16,.84-.26,1.4-.78,1.68-1.56,.36-1.03-.08-2.16-1.34-3.38-.15-.15-.85-.76-2.11-1.84-.98-.85-1.8-1.64-2.45-2.37-2.09-2.42-2.67-4.94-1.75-7.56,.73-2.08,2.12-3.53,4.17-4.34,2.08-.83,4.36-.8,6.84,.07,3.22,1.13,5.55,3.21,6.97,6.23l-3.93,2.69c-.42-.95-1.05-1.81-1.9-2.58-.85-.76-1.76-1.32-2.72-1.66-.98-.35-1.84-.4-2.56-.17-.72,.24-1.21,.71-1.46,1.43-.34,.96,.05,2.02,1.15,3.16l2.07,1.94c1.18,1.07,2.04,1.86,2.56,2.37,2.34,2.36,3.02,4.91,2.05,7.66-.78,2.21-2.26,3.73-4.43,4.55-2.17,.82-4.62,.75-7.32-.2Z"/>
          <path class="cls-1" d="M428.89,716.93l-5.11-1.26,6.27-25.54,5.11,1.25-2.5,10.19,10.71,2.63,2.5-10.19,5.11,1.26-6.27,25.54-5.11-1.26,2.55-10.4-10.71-2.63-2.55,10.4Z"/>
          <path class="cls-1" d="M472.67,725.03l-6.1-.85-4.18-10.25-3.1-.43-1.32,9.48-5.22-.73,3.62-26.04,9.97,1.39c2.89,.4,4.99,1.51,6.29,3.32,1.3,1.81,1.8,3.87,1.48,6.17-.24,1.74-.91,3.23-2.01,4.48-1.1,1.25-2.54,2.06-4.34,2.43l4.9,11.03Zm-7.02-22.6l-4.72-.66-.98,7.05,4.26,.59c1.32,.18,2.37,0,3.15-.57,.78-.56,1.25-1.37,1.4-2.43,.14-1.01-.07-1.89-.62-2.64-.56-.75-1.38-1.2-2.49-1.35Z"/>
          <path class="cls-1" d="M478.38,725.33l1.79-26.23,5.29,.36-1.79,26.23-5.29-.36Z"/>
          <path class="cls-1" d="M506.57,726.09l-5.26,.17-.86-26.28,17.53-.57,.16,4.98-12.27,.4,.19,5.9,10.78-.35,.16,4.94-10.78,.35,.34,10.46Z"/>
          <path class="cls-1" d="M536.73,724.15c-3.88,.52-7.27-.33-10.18-2.56-2.93-2.24-4.65-5.24-5.15-9-.51-3.79,.37-7.17,2.63-10.15,2.28-2.98,5.33-4.73,9.14-5.24s7.19,.38,10.16,2.67c2.98,2.28,4.73,5.29,5.23,9.03,.5,3.74-.39,7.09-2.68,10.05-2.26,2.96-5.31,4.69-9.14,5.2Zm6.39-14.53c-.32-2.4-1.37-4.28-3.16-5.65-1.81-1.39-3.85-1.93-6.1-1.63s-4.08,1.36-5.46,3.17c-1.37,1.79-1.89,3.88-1.57,6.28,.32,2.38,1.36,4.25,3.12,5.62,1.79,1.37,3.83,1.89,6.13,1.59s4.14-1.35,5.5-3.14c1.36-1.78,1.88-3.86,1.54-6.24Z"/>
          <path class="cls-1" d="M554.3,711.19l-4.03-16.19,5.14-1.28,3.94,15.85c.42,1.68,1.16,2.85,2.23,3.52,1.07,.66,2.36,.81,3.88,.43,1.47-.37,2.52-1.1,3.15-2.21,.63-1.11,.74-2.48,.33-4.12l-3.94-15.85,5.18-1.29,4.03,16.19c.8,3.2,.46,5.86-1.02,7.99-1.45,2.12-3.62,3.54-6.49,4.25-2.88,.72-5.47,.48-7.77-.71-2.3-1.19-3.85-3.38-4.64-6.58Z"/>
          <path class="cls-1" d="M596.9,697.91l-5.6-15.27,4.88-1.79,9.06,24.69-3.37,1.24-18.35-10.44,5.55,15.13-4.88,1.79-9.06-24.69,3.14-1.15,18.63,10.49Z"/>
          <path class="cls-1" d="M621.87,697.74l-9.01,4.49-11.73-23.53,9.2-4.59c3.55-1.77,6.85-2.09,9.9-.96,3.07,1.12,5.52,3.49,7.33,7.12,1.81,3.63,2.2,7,1.18,10.11-.99,3.12-3.28,5.57-6.87,7.36Zm-13.78-16.87l7.22,14.49,4.52-2.25c2.02-1,3.24-2.48,3.68-4.42,.44-1.94,.13-3.96-.92-6.06-1.02-2.04-2.43-3.47-4.24-4.29-1.81-.82-3.73-.73-5.74,.28l-4.52,2.25Z"/>
          <path class="cls-1" d="M656.58,677.56l-4.7,2.96-4.69-3.77-7.77,4.89,1.32,5.9-4.67,2.94-5.52-27.6,3.64-2.29,22.38,16.98Zm-13.15-3.99l-7.25-5.78,2.02,9.08,5.24-3.3Z"/>
          <path class="cls-1" d="M662.84,672.79l-12.74-16.96-6,4.51-3.06-4.07,16.27-12.22,3.06,4.07-6,4.51,12.74,16.96-4.27,3.21Z"/>
          <path class="cls-1" d="M676.98,661.65l-17.13-19.95,4.02-3.45,17.12,19.95-4.02,3.45Z"/>
          <path class="cls-1" d="M695.84,644.81c-2.75,2.78-5.96,4.19-9.61,4.21-3.69,.02-6.88-1.3-9.58-3.97-2.72-2.69-4.09-5.9-4.13-9.64-.02-3.76,1.32-7,4.02-9.74s5.92-4.1,9.66-4.11c3.76-.02,6.98,1.29,9.66,3.94,2.68,2.65,4.03,5.85,4.03,9.59,.02,3.72-1.33,6.96-4.04,9.71Zm-3.84-15.4c-1.72-1.7-3.71-2.54-5.95-2.53-2.28,.01-4.22,.83-5.82,2.45-1.6,1.62-2.39,3.57-2.38,5.85,.01,2.25,.88,4.22,2.6,5.92,1.7,1.68,3.67,2.53,5.9,2.53,2.25-.01,4.19-.85,5.82-2.5s2.44-3.6,2.43-5.85c-.01-2.25-.88-4.2-2.6-5.87Z"/>
          <path class="cls-1" d="M712.33,609.78l-12.8-10.03,3.21-4.09,20.69,16.22-2.22,2.83-21.09,.78,12.69,9.95-3.21,4.09-20.69-16.22,2.06-2.63,21.36-.89Z"/>
        </g>
      </g>
    </g>
  </g>
</svg>