<?xml version="1.0" encoding="UTF-8"?>
<svg id="Final_Designs" data-name="Final Designs" xmlns="http://www.w3.org/2000/svg" viewBox="0 0 1000 1000">
  <defs>
    <style>
      .cls-1 {
        fill: #fac63b;
      }

      .cls-2 {
        fill: #033631;
      }
    </style>
  </defs>
  <g id="Circle_Colour" data-name="Circle Colour">
    <g id="Icon_Mark_Circle_Colour_" data-name="Icon Mark Circle (Colour)">
      <circle class="cls-2" cx="500" cy="500" r="495"/>
      <g>
        <g>
          <path class="cls-1" d="M634.25,406.56c1.24,12.56-1.9,25.45-9.4,36.21,11.95,38.96,2.51,83.07-28.32,113.89-20.14,20.14-45.96,31.15-72.29,33.03-4.25,8.33-9.84,16.03-16.65,22.83-17.07,17.07-39.76,26.47-63.9,26.47-2.13,0-4.25-.07-6.36-.22,58.07,24.82,127.9,13.54,175.29-33.84,53.87-53.87,61.08-136.74,21.62-198.38Zm-84.72-39.1c9.01-6.29,19.7-9.69,30.92-9.69,1.77,0,3.52,.09,5.26,.26-61.63-39.42-144.47-32.2-198.33,21.66-47.39,47.39-58.68,117.23-33.84,175.3-.15-2.11-.22-4.24-.22-6.37,0-24.14,9.4-46.84,26.47-63.91,6.8-6.8,14.5-12.39,22.83-16.64,1.88-26.34,12.88-52.15,33.02-72.3,30.82-30.82,74.92-40.26,113.88-28.32Z"/>
          <path class="cls-1" d="M415.18,623.01c-10.14-3.87-19.63-9.9-27.8-18.07-8.17-8.17-14.19-17.67-18.06-27.8,11.56,.57,22.95,5.26,31.78,14.09,8.83,8.83,13.52,20.22,14.09,31.78Z"/>
          <path class="cls-1" d="M500,492.32c-31.1-31.1-81.52-31.1-112.62,0-21.77,21.78-28.3,53.02-19.58,80.47,13.16,.21,26.28,5.35,36.33,15.4,10.05,10.05,15.19,23.16,15.4,36.33,27.45,8.72,58.7,2.19,80.47-19.58,31.1-31.1,31.1-81.52,0-112.62Zm-17.1,56.01c-.21,1.2-1.28,2.08-2.51,2.08-.62,0-1.2-.23-1.65-.61-.44-.38-.76-.92-.86-1.54-2.74-16.97-16.15-30.38-33.13-33.13-1.24-.2-2.15-1.26-2.15-2.51,0-.62,.21-1.19,.59-1.64,.37-.44,.89-.77,1.49-.87,1.88-.34,3.82-.51,5.79-.51,18.12,0,32.93,14.81,32.93,32.93,0,1.98-.17,3.92-.51,5.8Z"/>
          <path class="cls-1" d="M611.34,378.46c-9.54,6.06-22.33,4.92-30.66-3.41-2.47-2.47-4.3-5.33-5.5-8.38,12.78-1.48,26.07,2.45,36.16,11.79Z"/>
          <path class="cls-1" d="M614.84,413.78c-8.21-8.21-10.24-20.26-6.08-30.37-10.11,4.16-22.15,2.13-30.36-6.08-2.97-2.98-5.13-6.45-6.48-10.16-8.67,1.65-16.95,5.82-23.66,12.53-17.77,17.77-17.77,46.59,0,64.35,17.77,17.77,46.59,17.77,64.36,0,6.73-6.73,10.91-15.03,12.54-23.73-3.77-1.35-7.3-3.52-10.32-6.54Zm-34.14,19.51c-1.61,.4-3.31,.58-5.06,.51-9.58-.39-17.26-8.52-17.14-18.1,.02-1.41,.2-2.78,.52-4.09,.16-.65,.75-1.12,1.43-1.12s1.31,.5,1.43,1.19c1.72,9.53,9.23,17.04,18.75,18.75,.69,.13,1.19,.74,1.19,1.44s-.47,1.27-1.12,1.43Z"/>
          <path class="cls-1" d="M625.66,417.06c-3.11-1.19-6.03-3.05-8.54-5.56-8.33-8.32-9.46-21.12-3.41-30.67,9.43,10.09,13.41,23.41,11.95,36.23Z"/>
          <path class="cls-1" d="M390.25,614.96c-2.45-2.45-4.7-5.02-6.76-7.68-.63,1.3-3.59,6.93-8.46,8.32,0,0-6.28,2.45-7.07,7.07,0,0-.95-5.1,5.98-8.77,1.16-.4,2.48-.97,3.88-1.8,2.62-1.57,4.45-3.42,5.63-4.87-1.95-2.52-3.72-5.13-5.31-7.82l-11.42,2.66c-11.95,2.79-22.2,16.75-10.64,28.31,0,0-2.72-6.47,1.12-11.55-.39,2.03-.84,5.95,.47,10.59,.45,1.57,1.03,2.99,1.66,4.22,1.41,2.74,3.07,4.62,4.08,5.65,0,0-.21-.81-.03-1.72,.13-.69,.49-1.41,1.3-1.9,0,0,1.57,4.27,5.65,5.38,.01,0,.01,0,.03,0,.69,.14,1.37,.22,2.05,.24,.03,.01,.07,0,.12,0-.21-.1-2.48-1.29-2.45-2.82,.14,.22,1.9,3,6.4,2.36,6.61-1.76,12.13-8.2,13.77-15.23l2.03-8.7c-.69-.62-1.37-1.28-2.03-1.95Zm-21.42-2.04c.16-.39,3.25-7.32,10.51-5.71,0,0-6.41,.66-10.51,5.71Zm-7.28,.19s5.83-11.58,17.88-8.93c-.58,0-10.62,0-17.88,8.93Zm18.27,6.88s2.58-1.36,3.51-3.68c0,0-.3,3.17-2.83,4.47,0,0-2.87,1.44-2.65,3.68,0,0-1.08-2.53,1.97-4.47Zm-3.31,10.36c9.26-6.81,9.76-16.85,9.79-17.41,2.01,11.93-9.35,17.22-9.79,17.41Z"/>
          <path class="cls-1" d="M603.08,352.83c-.05-.01-.1-.03-.16-.04l-.49-.14c-1-.18-1.52,.26-1.52,.26,2.96,2.67,1.1,7.01,.97,7.32,1.3-5.4-3.61-8.68-3.61-8.68-5.81-.76-8.39,5.4-7.04,10.09l.93,3.24c3.29,.78,6.49,1.93,9.57,3.46h0l3.12-2.84c3.82-3.49,4.75-10.71-1.77-12.68Zm-6.34,1.49c-.05,.19-.74,2.83,1.93,5.13-.19-.07-3.85-1.59-1.93-5.13Zm4.08,9.9c.06-.43,.79-6.12-3.38-9.71,.29,.15,5.98,3.16,3.38,9.71Z"/>
          <path class="cls-1" d="M640.45,392.86v-.04c-.15-.47-.81-2.41-2.35-3.21,0,0,1.11-.04,1.74,1.12l-.43-1.48c-1.92-6.69-9.23-5.75-12.73-1.88l-3.35,3.7c1.21,2.8,2.13,5.69,2.74,8.63l4.52,1.28c4.96,1.4,11.57-1.59,9.86-8.13Zm-14.97-.06c.03-.19,.59-4.12,4.49-3.14-.14,0-2.9-.05-4.49,3.14Zm8.25-.47c-.16-.09-3.68-1.85-7.64,1.27,.12-.19,3.23-4.94,7.64-1.27Zm-7.03,4.71s5.69,2.15,10.21-1.35c-.14,.19-4.27,5.27-10.21,1.35Z"/>
        </g>
        <g>
          <path class="cls-1" d="M442.58,751.5c-5.08-25.22-34.46-52.89-54.62-67.51-1.37,10.08,2.87,46.08,32.89,61.46-29.56-4.24-68.62,10.59-75.43,14.85,33.8,15.2,78.58,14.71,97.16-8.79Z"/>
          <path class="cls-1" d="M390.58,734.81c.44-24.26-21.87-58.3-37.23-75.54-3.7,10.19-7.74,44.45,19.07,66.01-30.24-11.77-69.32-5.27-76.28-3.01,29.37,22.91,72.51,30.69,94.44,12.54Z"/>
          <path class="cls-1" d="M345.51,707.36c4.74-23.01-10.6-60.59-21.93-78.69-9.95,17.36-10.97,47.06,7.43,67.34-28.66-17.56-65.41-18.4-73.28-17.53,24.85,28.64,64.93,41.79,87.79,28.87Z"/>
          <path class="cls-1" d="M305.65,671.93c9.3-20.27,3.47-59.77-4.79-80.46-7.8,9.39-22.95,37.95-5.72,67.67-23.49-23.18-55.11-31.59-67.34-32.76,19.23,34.55,55.51,52.38,77.85,45.55Z"/>
          <path class="cls-1" d="M274.47,627.7c13.87-18.74,12.84-61.52,10.16-79.62-15.13,11.26-27.86,33.37-21.64,57.14-13.74-19.85-44.38-36.89-54.9-40.88,10.67,41.38,44.63,65.57,66.38,63.36Z"/>
          <path class="cls-1" d="M251.5,575.47c12.22-10.77,25.6-43.42,25.92-69.49-19.66,10.68-32.98,31-29.45,57.44-8.38-21.01-21.79-41.19-44.97-55.05,2.42,36.48,28,65.13,48.5,67.1Z"/>
          <path class="cls-1" d="M241.08,524.15c13.66-6.89,33.96-34.86,38.32-62.83-21.37,8.28-36.45,25.34-38.86,51.82-3.33-21.62-10.38-41.93-33-60.94-3.52,34.28,15.82,65.81,33.54,71.95Z"/>
          <path class="cls-1" d="M241.65,470.39c13.92-3.24,39.25-25.19,48.17-52.59-21.93,4.93-38.36,17.55-46.53,43.29,1.6-24.63-3.02-43.62-19.75-63.78-9.69,32.62,4.67,64.85,18.11,73.08Z"/>
          <path class="cls-1" d="M251.29,422.95c12.02-.06,41.44-14.66,55.22-41.56-22.37,1.48-39.08,10.34-52.21,33.93,7.13-26.95,3.89-44.28-7.29-64.38-15.15,29.56-6.07,62.58,4.28,72.01Z"/>
          <path class="cls-1" d="M270.95,376.32c11.34,2.26,41.91-5.82,60.1-28.52-21.38-2.93-38.85,2.21-55.79,21.91,11.93-24.04,12.22-41,5.56-62.12-19.99,24.95-17.81,57.85-9.87,68.73Z"/>
          <path class="cls-1" d="M429.5,701.73c.62,9.59,12.77,44.92,44.08,54.1-31.05,2.19-65.31,25.48-70.19,30.43,39.46,8.17,82.6-3.16,94.37-29.03-11.81-24.69-43.57-44.09-68.26-55.49Z"/>
          <path class="cls-1" d="M298.16,338.14c20.85,.71,36.73-21.74,42.88-41.86-22.18,3.01-45.52,21.1-42.88,41.86Z"/>
        </g>
        <g>
          <path class="cls-1" d="M557.42,751.5c5.08-25.22,34.46-52.89,54.62-67.51,1.37,10.08-2.87,46.08-32.89,61.46,29.56-4.24,68.62,10.59,75.43,14.85-33.8,15.2-78.58,14.71-97.16-8.79Z"/>
          <path class="cls-1" d="M609.42,734.81c-.44-24.26,21.87-58.3,37.23-75.54,3.7,10.19,7.74,44.45-19.07,66.01,30.24-11.77,69.32-5.27,76.28-3.01-29.37,22.91-72.51,30.69-94.44,12.54Z"/>
          <path class="cls-1" d="M654.49,707.36c-4.74-23.01,10.6-60.59,21.93-78.69,9.95,17.36,10.97,47.06-7.43,67.34,28.66-17.56,65.41-18.4,73.28-17.53-24.85,28.64-64.93,41.79-87.79,28.87Z"/>
          <path class="cls-1" d="M694.35,671.93c-9.3-20.27-3.47-59.77,4.79-80.46,7.8,9.39,22.95,37.95,5.72,67.67,23.49-23.18,55.11-31.59,67.34-32.76-19.23,34.55-55.51,52.38-77.85,45.55Z"/>
          <path class="cls-1" d="M725.53,627.7c-13.87-18.74-12.84-61.52-10.16-79.62,15.13,11.26,27.86,33.37,21.64,57.14,13.74-19.85,44.38-36.89,54.9-40.88-10.67,41.38-44.63,65.57-66.38,63.36Z"/>
          <path class="cls-1" d="M748.5,575.47c-12.22-10.77-25.6-43.42-25.92-69.49,19.66,10.68,32.98,31,29.45,57.44,8.38-21.01,21.79-41.19,44.97-55.05-2.42,36.48-28,65.13-48.5,67.1Z"/>
          <path class="cls-1" d="M758.92,524.15c-13.66-6.89-33.96-34.86-38.32-62.83,21.37,8.28,36.45,25.34,38.86,51.82,3.33-21.62,10.38-41.93,33-60.94,3.52,34.28-15.82,65.81-33.54,71.95Z"/>
          <path class="cls-1" d="M758.35,470.39c-13.92-3.24-39.25-25.19-48.17-52.59,21.93,4.93,38.36,17.55,46.53,43.29-1.6-24.63,3.02-43.62,19.75-63.78,9.69,32.62-4.67,64.85-18.11,73.08Z"/>
          <path class="cls-1" d="M748.71,422.95c-12.02-.06-41.44-14.66-55.22-41.56,22.37,1.48,39.08,10.34,52.21,33.93-7.13-26.95-3.89-44.28,7.29-64.38,15.15,29.56,6.07,62.58-4.28,72.01Z"/>
          <path class="cls-1" d="M729.05,376.32c-11.34,2.26-41.91-5.82-60.1-28.52,21.38-2.93,38.85,2.21,55.79,21.91-11.93-24.04-12.22-41-5.56-62.12,19.99,24.95,17.81,57.85,9.87,68.73Z"/>
          <path class="cls-1" d="M570.5,701.73c-.62,9.59-12.77,44.92-44.08,54.1,31.05,2.19,65.31,25.48,70.19,30.43-39.46,8.17-82.6-3.16-94.37-29.03,11.81-24.69,43.57-44.09,68.26-55.49Z"/>
          <path class="cls-1" d="M701.84,338.14c-20.85,.71-36.73-21.74-42.88-41.86,22.18,3.01,45.52,21.1,42.88,41.86Z"/>
        </g>
      </g>
    </g>
  </g>
</svg>