<?xml version="1.0" encoding="UTF-8"?>
<svg id="Final_Designs" data-name="Final Designs" xmlns="http://www.w3.org/2000/svg" viewBox="0 0 1000 1000">
  <defs>
    <style>
      .cls-1 {
        fill: #fac63b;
      }

      .cls-2 {
        fill: #033631;
      }

      .cls-3 {
        fill: #fbfceb;
      }
    </style>
  </defs>
  <g id="Circle_Colour" data-name="Circle Colour">
    <g id="Primary_Circle_Colour_" data-name="Primary Circle (Colour)">
      <circle class="cls-2" cx="500" cy="500" r="495"/>
      <g>
        <g>
          <path class="cls-3" d="M265.34,715.09h-13.42c-3.17,0-6.15-1.51-8.02-4.06l-9.59-14c-1.48-1.59-3.08-3.36-6.23-3.36-4.31,0-6.69,2.32-6.69,6.63v2.71c0,6.91,2.14,10.59,2.99,11.73l.28,.36h-18.77l.28-.36c.85-1.13,2.99-4.81,2.99-11.73v-30.41c0-8.53-3.28-12.09-3.28-12.09h36.28c4.73,0,9.02,1.9,12.13,5.01,3.11,3.11,5.05,7.4,5.05,12.17,0,8.69-6.47,15.08-14.84,16.05,1.74,.69,3.23,1.82,4.37,3.36l7.52,10.23c2.35,3.23,5.42,5.86,8.94,7.76Zm-18.21-37.4c0-7.24-5.9-13.75-13.14-13.75h-12.65l.04,26.28h12.6c7.24,0,13.14-5.3,13.14-12.54Z"/>
          <path class="cls-3" d="M333.93,715.09h-19.85c-.48-4.77-1.7-9.46-3.56-13.91h-28.67l-1.13,2.35c-1.74,3.6-2.55,7.56-2.34,11.56h-10.11c4.45-4.85,8.17-10.39,11.04-16.33l11.73-24.3c2.1-4.41,2.1-9.54-.08-13.95h13.5l16.5,34.25c3.48,7.28,7.84,14.11,12.98,20.34Zm-24.99-17.35l-12.66-26.32-12.78,26.32h25.43Z"/>
          <path class="cls-3" d="M410.06,714.73l.28,.36h-18.68l.32-.36c.85-1.13,2.95-4.81,2.95-11.73v-28.59l-16.78,40.68h-13.1l-19.04-46.09v34c0,6.91,2.14,10.59,2.99,11.73l.28,.36h-9.99l.28-.36c.85-1.13,2.99-4.81,2.99-11.73v-30.41c0-8.53-3.28-12.09-3.28-12.09h16.33l20.66,50.08,20.65-50.08h13.4s-3.28,3.56-3.28,12.09v30.41c0,6.91,2.18,10.59,2.99,11.73Z"/>
          <path class="cls-3" d="M481.3,715.09h-19.85c-.49-4.77-1.7-9.46-3.56-13.91h-28.67l-1.13,2.35c-1.74,3.6-2.55,7.56-2.34,11.56h-10.11c4.45-4.85,8.17-10.39,11.04-16.33l11.73-24.3c2.1-4.41,2.1-9.54-.08-13.95h13.5l16.5,34.25c3.48,7.28,7.84,14.11,12.98,20.34Zm-24.99-17.35l-12.66-26.32-12.78,26.32h25.43Z"/>
          <path class="cls-3" d="M544.25,660.49s-3.28,3.56-3.28,12.09v42.5h-6.49c-1.87,0-3.64-.87-4.79-2.35l-36.45-47.04-.02,37.3c0,6.91,2.14,10.59,2.99,11.73l.28,.36h-9.99l.28-.36c.85-1.13,2.99-4.81,2.99-11.73v-30.41c0-8.53-3.28-12.09-3.28-12.09h15.06c1.88,0,3.65,.87,4.79,2.35l31.15,40.24,.02-30.5c0-8.53-3.28-12.09-3.28-12.09h9.98Z"/>
          <path class="cls-3" d="M570.48,714.73l.28,.36h-18.68l.28-.36c.85-1.13,2.99-4.81,2.99-11.73v-30.41c0-8.53-3.28-12.09-3.28-12.09h18.68s-3.28,3.56-3.28,12.09v30.41c0,6.91,2.14,10.59,2.99,11.73Z"/>
          <path class="cls-3" d="M628.82,699.41c0,12.04-12.87,16.98-25.58,16.98-8.39,0-18.8-3.96-22.78-10.55-1.92-3.19,.54-7.32,4.17-7.32h5.74c0,11.53,7.14,14.64,12.97,14.64,4.63,0,13.35-3.11,13.35-13.74,0-3.21-8.04-6.1-14.87-7.14-13.14-2.07-22.91-6.43-22.91-16.7,0-11.6,14.2-16.19,24.14-16.53,7.48,0,19.2,3.29,22.85,11.73,1.33,3.08-1.14,6.53-4.4,6.53h-6.2c0-11.74-6.14-14.83-12.06-14.83-5.58,0-12.2,3.09-12.2,13.1,0,5.09,8.14,6.45,13.11,7.24,13.09,2.07,24.67,5.88,24.67,16.6Z"/>
          <path class="cls-3" d="M699.4,714.73l.28,.36h-18.68l.28-.36c.85-1.13,2.99-4.81,2.99-11.73v-14.23h-32.18v14.23c0,6.91,2.14,10.59,2.99,11.73l.28,.36h-18.68l.28-.36c.85-1.13,2.99-4.81,2.99-11.73v-30.41c0-8.53-3.28-12.09-3.28-12.09h18.68s-3.28,3.56-3.28,12.09v12.74h32.18v-12.74c0-8.53-3.28-12.09-3.28-12.09h18.68s-3.28,3.56-3.28,12.09v30.41c0,6.91,2.14,10.59,2.99,11.73Z"/>
          <path class="cls-3" d="M767.25,715.09h-13.42c-3.17,0-6.15-1.51-8.02-4.06l-9.59-14c-1.48-1.59-3.08-3.36-6.23-3.36-4.31,0-6.69,2.32-6.69,6.63v2.71c0,6.91,2.14,10.59,2.99,11.73l.28,.36h-18.77l.28-.36c.85-1.13,2.99-4.81,2.99-11.73v-30.41c0-8.53-3.28-12.09-3.28-12.09h36.28c4.73,0,9.02,1.9,12.13,5.01,3.11,3.11,5.05,7.4,5.05,12.17,0,8.69-6.47,15.08-14.84,16.05,1.74,.69,3.23,1.82,4.37,3.36l7.52,10.23c2.35,3.23,5.42,5.86,8.94,7.76Zm-18.21-37.4c0-7.24-5.9-13.75-13.14-13.75h-12.65l.04,26.28h12.6c7.24,0,13.14-5.3,13.14-12.54Z"/>
          <path class="cls-3" d="M791.46,714.73l.28,.36h-18.68l.28-.36c.85-1.13,2.99-4.81,2.99-11.73v-30.41c0-8.53-3.28-12.09-3.28-12.09h18.68s-3.28,3.56-3.28,12.09v30.41c0,6.91,2.14,10.59,2.99,11.73Z"/>
          <path class="cls-3" d="M321.04,754.62v14.86h7.72c2.76,0,5.51-1.21,7.98-2.46v7.02l-.03-.03c-2.47-1.22-5.17-2.32-7.9-2.32h-7.77l.03,8.03c0,4.44,1.38,6.81,1.92,7.54l.18,.23h-12.03l.18-.23c.55-.73,1.92-3.09,1.92-7.54v-19.54c0-5.48-2.11-7.77-2.11-7.77h28.04v7.02c-2.42-2.42-5.69-4.81-9.1-4.81h-9.04Z"/>
          <path class="cls-3" d="M382.53,769.94c0,10.22-6.74,18.5-19.4,18.5s-19.4-8.28-19.4-18.5,6.74-18.5,19.4-18.5,19.4,8.28,19.4,18.5Zm-8.51-3.97c-3.56-9.78-10.1-13.63-16.48-11.31-6.38,2.32-8.71,9.96-5.33,19.25,3.38,9.29,10.1,13.67,16.48,11.35,6.38-2.32,8.71-10,5.33-19.29Z"/>
          <path class="cls-3" d="M418.88,752.4h6.37l-.18,.23c-.47,.62-1.59,2.5-1.87,5.9v.16c-.03,.44-.03,12.97-.03,12.97,0,11.12-7.55,16.75-16.75,16.75-4.6,0-9.42-1.87-12.41-4.89-3.01-3.01-4.82-7.29-4.82-11.89v-11.46c0-4.44-1.38-6.81-1.93-7.54l-.18-.23h11.98l-.18,.23c-.47,.62-1.59,2.5-1.87,5.9v.16c-.03,.44-.03,.91-.03,1.38v12.32c0,6.71,4.72,13.85,11.42,13.85,7.57,0,12.58-6.67,12.58-13.9v-13.33c0-3.27-1.38-5.64-1.92-6.36l-.18-.23h0Z"/>
          <path class="cls-3" d="M466.95,752.4s-2.11,2.29-2.11,7.77v27.31h-4.17c-1.2,0-2.34-.56-3.08-1.51l-23.43-30.23v23.97c-.01,4.44,1.37,6.81,1.91,7.54l.18,.23h-6.42l.18-.23c.55-.73,1.92-3.09,1.92-7.54v-19.54c0-5.48-2.11-7.77-2.11-7.77h9.68c1.21,0,2.34,.56,3.08,1.51l20.02,25.86,.02-19.61c0-5.48-2.11-7.77-2.11-7.77h6.42Z"/>
          <path class="cls-3" d="M509.65,769.95c0,9.69-7.85,17.54-17.54,17.54h-20.11l.18-.23c.55-.73,1.92-3.09,1.92-7.54v-19.54c0-5.48-2.11-7.77-2.11-7.77h20.11c9.69,0,17.54,7.85,17.54,17.54Zm-22.71-15.33h-5.08v30.67h4.05c8.03,0,15.15-6.29,15.9-14.29,.85-9.14-6.65-16.38-14.88-16.38Z"/>
          <path class="cls-3" d="M551.7,787.49h-12.76c-.31-3.07-1.09-6.08-2.29-8.94h-18.43l-.73,1.51c-1.12,2.31-1.64,4.86-1.51,7.43h-6.5c2.86-3.12,5.25-6.68,7.1-10.5l7.54-15.62c1.35-2.83,1.35-6.13-.05-8.97h8.68l10.6,22.01c2.24,4.68,5.04,9.07,8.34,13.07Zm-16.06-11.15l-8.13-16.92-8.21,16.92h16.35Z"/>
          <path class="cls-3" d="M583.78,752.41v7.02c-2.41-2.41-5.69-4.81-9.1-4.81h-4.94v25.21c0,.47,0,.93,.03,1.38v.16c.29,3.41,1.4,5.28,1.87,5.9l.18,.23h-12.01l.18-.23c.55-.73,1.92-3.09,1.92-7.54l.03-25.11h-4.96c-3.41,0-6.69,2.4-9.1,4.81v-7.02h35.89Z"/>
          <path class="cls-3" d="M599.56,787.26l.18,.23h-12.01l.18-.23c.55-.73,1.92-3.09,1.92-7.54v-19.54c0-5.48-2.11-7.77-2.11-7.77h12.01s-2.11,2.29-2.11,7.77v19.54c0,4.44,1.38,6.81,1.92,7.54Z"/>
          <path class="cls-3" d="M643.68,769.94c0,10.22-6.74,18.5-19.4,18.5s-19.4-8.28-19.4-18.5,6.74-18.5,19.4-18.5,19.4,8.28,19.4,18.5Zm-8.51-3.97c-3.56-9.78-10.1-13.63-16.48-11.31-6.38,2.32-8.71,9.96-5.33,19.25,3.38,9.29,10.1,13.67,16.48,11.35,6.38-2.32,8.71-10,5.33-19.29Z"/>
          <path class="cls-3" d="M685.85,752.4s-2.11,2.29-2.11,7.77v27.31h-4.17c-1.2,0-2.34-.56-3.08-1.51l-23.43-30.23v23.97c-.01,4.44,1.37,6.81,1.91,7.54l.18,.23h-6.42l.18-.23c.55-.73,1.92-3.09,1.92-7.54v-19.54c0-5.48-2.11-7.77-2.11-7.77h9.68c1.21,0,2.34,.56,3.08,1.51l20.02,25.86,.02-19.61c0-5.48-2.11-7.77-2.11-7.77h6.42Z"/>
        </g>
        <g>
          <g>
            <path class="cls-1" d="M605.06,294.81c.98,9.94-1.51,20.15-7.44,28.66,9.46,30.84,1.98,65.75-22.41,90.14-15.94,15.94-36.37,24.66-57.22,26.14-3.37,6.59-7.79,12.69-13.18,18.07-13.51,13.51-31.47,20.95-50.58,20.95-1.69,0-3.37-.06-5.03-.18,45.96,19.65,101.23,10.72,138.74-26.79,42.64-42.64,48.34-108.23,17.12-157.01Zm-67.06-30.94c7.13-4.98,15.59-7.67,24.47-7.67,1.4,0,2.79,.07,4.16,.2-48.78-31.2-114.34-25.48-156.97,17.14-37.51,37.51-46.44,92.78-26.78,138.75-.12-1.67-.18-3.35-.18-5.04,0-19.11,7.44-37.07,20.95-50.58,5.38-5.38,11.48-9.81,18.07-13.17,1.48-20.85,10.2-41.28,26.13-57.22,24.4-24.39,59.3-31.86,90.13-22.41Z"/>
            <path class="cls-1" d="M431.67,466.12c-8.02-3.07-15.54-7.84-22-14.3-6.46-6.46-11.23-13.98-14.29-22,9.15,.45,18.16,4.16,25.15,11.15s10.7,16,11.15,25.15Z"/>
            <path class="cls-1" d="M498.8,362.68c-24.61-24.62-64.52-24.62-89.14,0-17.23,17.23-22.4,41.96-15.5,63.69,10.42,.17,20.8,4.23,28.75,12.19,7.95,7.95,12.02,18.33,12.19,28.75,21.73,6.9,46.46,1.73,63.69-15.5,24.62-24.61,24.62-64.52,0-89.14Zm-13.53,44.33c-.17,.95-1.01,1.64-1.99,1.64-.49,0-.95-.18-1.3-.48-.35-.3-.6-.73-.68-1.22-2.17-13.43-12.78-24.04-26.22-26.22-.98-.16-1.7-1-1.7-1.98,0-.49,.17-.94,.46-1.3,.29-.35,.7-.61,1.18-.69,1.49-.27,3.02-.4,4.58-.4,14.34,0,26.07,11.72,26.07,26.06,0,1.56-.14,3.1-.4,4.59Z"/>
            <path class="cls-1" d="M586.93,272.57c-7.55,4.8-17.68,3.9-24.27-2.7-1.95-1.95-3.4-4.22-4.35-6.63,10.12-1.17,20.63,1.94,28.62,9.33Z"/>
            <path class="cls-1" d="M589.7,300.52c-6.5-6.5-8.1-16.03-4.82-24.03-8,3.29-17.53,1.68-24.03-4.82-2.35-2.36-4.06-5.1-5.13-8.04-6.86,1.3-13.42,4.61-18.72,9.91-14.06,14.07-14.06,36.87,0,50.93,14.07,14.07,36.87,14.07,50.94,0,5.33-5.33,8.63-11.9,9.93-18.78-2.98-1.07-5.78-2.79-8.17-5.18Zm-27.02,15.44c-1.27,.32-2.62,.46-4.01,.4-7.58-.31-13.66-6.74-13.57-14.33,.02-1.12,.16-2.2,.41-3.24,.13-.52,.59-.88,1.13-.88s1.04,.4,1.13,.94c1.36,7.54,7.3,13.48,14.84,14.84,.54,.1,.94,.58,.94,1.14s-.37,1.01-.89,1.13Z"/>
            <path class="cls-1" d="M598.26,303.12c-2.46-.94-4.77-2.41-6.76-4.4-6.59-6.59-7.49-16.71-2.7-24.27,7.46,7.98,10.61,18.53,9.46,28.67Z"/>
            <path class="cls-1" d="M411.94,459.75c-1.94-1.94-3.72-3.97-5.35-6.08-.5,1.03-2.84,5.48-6.7,6.59,0,0-4.97,1.94-5.6,5.59,0,0-.75-4.03,4.74-6.94,.92-.32,1.97-.77,3.07-1.43,2.07-1.24,3.52-2.71,4.45-3.86-1.54-1.99-2.94-4.06-4.2-6.19l-9.04,2.11c-9.46,2.21-17.57,13.26-8.42,22.41,0,0-2.15-5.12,.89-9.14-.31,1.61-.67,4.71,.37,8.38,.36,1.25,.82,2.36,1.31,3.34,1.12,2.17,2.43,3.65,3.23,4.47,0,0-.17-.64-.02-1.36,.1-.54,.39-1.12,1.03-1.5,0,0,1.25,3.38,4.47,4.25,.01,0,.01,0,.02,0,.54,.11,1.09,.18,1.63,.19,.02,.01,.06,0,.1,0-.16-.08-1.96-1.02-1.94-2.23,.11,.18,1.51,2.37,5.06,1.87,5.23-1.39,9.6-6.49,10.89-12.05l1.61-6.89c-.54-.49-1.08-1.01-1.61-1.54Zm-16.95-1.61c.13-.31,2.57-5.8,8.32-4.52,0,0-5.08,.52-8.32,4.52Zm-5.76,.15s4.62-9.17,14.15-7.06c-.46,0-8.41,0-14.15,7.06Zm14.46,5.44s2.04-1.08,2.78-2.91c0,0-.24,2.51-2.24,3.54,0,0-2.27,1.14-2.1,2.91,0,0-.86-2.01,1.56-3.54Zm-2.62,8.2c7.33-5.39,7.73-13.34,7.74-13.78,1.59,9.44-7.4,13.63-7.74,13.78Z"/>
            <path class="cls-1" d="M580.39,252.28s-.08-.02-.12-.03l-.39-.11c-.79-.14-1.2,.21-1.2,.21,2.34,2.11,.87,5.55,.76,5.8,1.03-4.28-2.86-6.87-2.86-6.87-4.59-.6-6.64,4.28-5.57,7.99l.74,2.57c2.6,.62,5.14,1.53,7.57,2.74h0l2.47-2.25c3.03-2.76,3.76-8.48-1.4-10.03Zm-5.02,1.18c-.04,.15-.58,2.24,1.52,4.06-.15-.06-3.05-1.26-1.52-4.06Zm3.23,7.84c.05-.34,.62-4.84-2.67-7.68,.23,.12,4.73,2.5,2.67,7.68Z"/>
            <path class="cls-1" d="M609.97,283.97v-.03c-.12-.37-.64-1.9-1.86-2.54,0,0,.88-.03,1.38,.88l-.34-1.17c-1.52-5.29-7.3-4.55-10.07-1.48l-2.65,2.93c.96,2.22,1.68,4.5,2.17,6.83l3.57,1.01c3.93,1.11,9.16-1.26,7.8-6.44Zm-11.85-.05c.02-.15,.46-3.26,3.55-2.48-.11,0-2.29-.04-3.55,2.48Zm6.53-.37c-.13-.07-2.91-1.46-6.05,1.01,.1-.15,2.56-3.91,6.05-1.01Zm-5.56,3.73s4.5,1.71,8.08-1.07c-.11,.15-3.38,4.17-8.08,1.07Z"/>
          </g>
          <g>
            <path class="cls-1" d="M453.36,567.81c-4.02-19.96-27.27-41.86-43.23-53.43-1.09,7.97,2.27,36.47,26.03,48.64-23.4-3.36-54.31,8.38-59.7,11.75,26.75,12.03,62.2,11.64,76.9-6.96Z"/>
            <path class="cls-1" d="M412.21,554.61c.35-19.2-17.31-46.14-29.47-59.79-2.93,8.06-6.13,35.18,15.09,52.25-23.93-9.32-54.86-4.17-60.37-2.38,23.25,18.13,57.39,24.29,74.74,9.92Z"/>
            <path class="cls-1" d="M376.53,532.88c3.75-18.21-8.39-47.96-17.36-62.28-7.87,13.74-8.69,37.25,5.88,53.3-22.68-13.9-51.77-14.56-58-13.87,19.66,22.66,51.39,33.07,69.48,22.85Z"/>
            <path class="cls-1" d="M344.98,504.84c7.36-16.04,2.75-47.31-3.79-63.68-6.17,7.43-18.17,30.04-4.53,53.56-18.59-18.35-43.62-25-53.29-25.93,15.22,27.35,43.93,41.46,61.62,36.05Z"/>
            <path class="cls-1" d="M320.31,469.83c10.98-14.83,10.16-48.69,8.04-63.02-11.97,8.92-22.05,26.41-17.13,45.22-10.87-15.71-35.13-29.2-43.45-32.35,8.44,32.75,35.32,51.89,52.54,50.15Z"/>
            <path class="cls-1" d="M302.13,428.5c9.67-8.52,20.26-34.37,20.52-55-15.56,8.45-26.1,24.54-23.31,45.46-6.63-16.63-17.25-32.6-35.59-43.57,1.91,28.87,22.16,51.55,38.39,53.11Z"/>
            <path class="cls-1" d="M293.88,387.87c10.81-5.45,26.87-27.59,30.33-49.73-16.91,6.55-28.85,20.06-30.76,41.02-2.64-17.11-8.22-33.19-26.12-48.23-2.78,27.13,12.52,52.09,26.54,56.94Z"/>
            <path class="cls-1" d="M294.33,345.33c11.02-2.56,31.07-19.94,38.13-41.62-17.36,3.9-30.36,13.89-36.83,34.26,1.27-19.5-2.39-34.53-15.63-50.48-7.67,25.82,3.7,51.32,14.33,57.84Z"/>
            <path class="cls-1" d="M301.96,307.78c9.51-.05,32.79-11.6,43.71-32.89-17.7,1.17-30.93,8.19-41.32,26.85,5.65-21.33,3.08-35.04-5.77-50.95-11.99,23.4-4.8,49.53,3.39,56.99Z"/>
            <path class="cls-1" d="M317.52,270.87c8.98,1.79,33.17-4.6,47.57-22.58-16.92-2.32-30.75,1.75-44.16,17.34,9.44-19.03,9.67-32.45,4.4-49.16-15.83,19.75-14.1,45.78-7.81,54.4Z"/>
            <path class="cls-1" d="M443.01,528.42c.49,7.59,10.11,35.56,34.89,42.82-24.58,1.73-51.69,20.17-55.55,24.08,31.23,6.46,65.38-2.5,74.69-22.98-9.34-19.54-34.48-34.89-54.03-43.92Z"/>
            <path class="cls-1" d="M339.06,240.65c16.5,.56,29.07-17.21,33.94-33.13-17.55,2.38-36.03,16.7-33.94,33.13Z"/>
          </g>
          <g>
            <path class="cls-1" d="M544.25,567.81c4.02-19.96,27.27-41.86,43.23-53.43,1.09,7.97-2.27,36.47-26.03,48.64,23.4-3.36,54.31,8.38,59.7,11.75-26.75,12.03-62.2,11.64-76.9-6.96Z"/>
            <path class="cls-1" d="M585.41,554.61c-.35-19.2,17.31-46.14,29.47-59.79,2.93,8.06,6.13,35.18-15.09,52.25,23.93-9.32,54.86-4.17,60.37-2.38-23.25,18.13-57.39,24.29-74.74,9.92Z"/>
            <path class="cls-1" d="M621.08,532.88c-3.75-18.21,8.39-47.96,17.36-62.28,7.87,13.74,8.69,37.25-5.88,53.3,22.68-13.9,51.77-14.56,58-13.87-19.66,22.66-51.39,33.07-69.48,22.85Z"/>
            <path class="cls-1" d="M652.63,504.84c-7.36-16.04-2.75-47.31,3.79-63.68,6.17,7.43,18.17,30.04,4.53,53.56,18.59-18.35,43.62-25,53.29-25.93-15.22,27.35-43.93,41.46-61.62,36.05Z"/>
            <path class="cls-1" d="M677.31,469.83c-10.98-14.83-10.16-48.69-8.04-63.02,11.97,8.92,22.05,26.41,17.13,45.22,10.87-15.71,35.13-29.2,43.45-32.35-8.44,32.75-35.32,51.89-52.54,50.15Z"/>
            <path class="cls-1" d="M695.49,428.5c-9.67-8.52-20.26-34.37-20.52-55,15.56,8.45,26.1,24.54,23.31,45.46,6.63-16.63,17.25-32.6,35.59-43.57-1.91,28.87-22.16,51.55-38.39,53.11Z"/>
            <path class="cls-1" d="M703.74,387.87c-10.81-5.45-26.87-27.59-30.33-49.73,16.91,6.55,28.85,20.06,30.76,41.02,2.64-17.11,8.22-33.19,26.12-48.23,2.78,27.13-12.52,52.09-26.54,56.94Z"/>
            <path class="cls-1" d="M703.28,345.33c-11.02-2.56-31.07-19.94-38.13-41.62,17.36,3.9,30.36,13.89,36.83,34.26-1.27-19.5,2.39-34.53,15.63-50.48,7.67,25.82-3.7,51.32-14.33,57.84Z"/>
            <path class="cls-1" d="M695.66,307.78c-9.51-.05-32.79-11.6-43.71-32.89,17.7,1.17,30.93,8.19,41.32,26.85-5.65-21.33-3.08-35.04,5.77-50.95,11.99,23.4,4.8,49.53-3.39,56.99Z"/>
            <path class="cls-1" d="M680.09,270.87c-8.98,1.79-33.17-4.6-47.57-22.58,16.92-2.32,30.75,1.75,44.16,17.34-9.44-19.03-9.67-32.45-4.4-49.16,15.83,19.75,14.1,45.78,7.81,54.4Z"/>
            <path class="cls-1" d="M554.61,528.42c-.49,7.59-10.11,35.56-34.89,42.82,24.58,1.73,51.69,20.17,55.55,24.08-31.23,6.46-65.38-2.5-74.69-22.98,9.34-19.54,34.48-34.89,54.03-43.92Z"/>
            <path class="cls-1" d="M658.56,240.65c-16.5,.56-29.07-17.21-33.94-33.13,17.55,2.38,36.03,16.7,33.94,33.13Z"/>
          </g>
        </g>
      </g>
    </g>
  </g>
</svg>