<?xml version="1.0" encoding="UTF-8"?>
<svg id="Final_Designs" data-name="Final Designs" xmlns="http://www.w3.org/2000/svg" viewBox="0 0 1000 1000">
  <defs>
    <style>
      .cls-1 {
        fill: #033631;
      }

      .cls-2 {
        fill: none;
      }
    </style>
  </defs>
  <g id="Alt_Trans_BG" data-name="Alt Trans BG">
    <g id="Primary_Alt_Trans_BG_" data-name="Primary (Alt Trans BG)">
      <rect class="cls-2" width="1000" height="1000"/>
      <g>
        <g>
          <path class="cls-1" d="M262.97,712.26h-13.56c-3.2,0-6.21-1.52-8.1-4.1l-9.69-14.14c-1.5-1.6-3.11-3.4-6.29-3.4-4.35,0-6.76,2.35-6.76,6.7v2.73c0,6.98,2.16,10.7,3.02,11.84l.29,.37h-18.96l.29-.37c.86-1.14,3.02-4.86,3.02-11.84v-30.71c0-8.62-3.31-12.21-3.31-12.21h36.64c4.78,0,9.11,1.92,12.25,5.07,3.15,3.14,5.11,7.47,5.11,12.29,0,8.78-6.54,15.23-14.99,16.21,1.76,.69,3.27,1.84,4.41,3.39l7.6,10.33c2.37,3.27,5.47,5.92,9.03,7.84Zm-18.39-37.78c0-7.31-5.96-13.89-13.27-13.89h-12.77l.04,26.55h12.73c7.31,0,13.27-5.35,13.28-12.66Z"/>
          <path class="cls-1" d="M332.25,712.26h-20.05c-.49-4.82-1.72-9.56-3.59-14.05h-28.96l-1.14,2.37c-1.76,3.63-2.57,7.64-2.37,11.68h-10.21c4.49-4.9,8.25-10.5,11.15-16.5l11.84-24.55c2.12-4.45,2.12-9.64-.08-14.09h13.64l16.66,34.59c3.51,7.35,7.92,14.25,13.11,20.54Zm-25.24-17.52l-12.78-26.59-12.91,26.59h25.69Z"/>
          <path class="cls-1" d="M409.15,711.89l.29,.37h-18.87l.33-.37c.86-1.14,2.98-4.86,2.98-11.84v-28.88l-16.95,41.09h-13.23l-19.24-46.55v34.34c0,6.98,2.17,10.7,3.02,11.84l.29,.37h-10.09l.29-.37c.86-1.14,3.02-4.86,3.02-11.84v-30.71c0-8.62-3.31-12.21-3.31-12.21h16.5l20.87,50.59,20.85-50.59h13.54s-3.31,3.59-3.31,12.21v30.71c0,6.98,2.21,10.7,3.02,11.84Z"/>
          <path class="cls-1" d="M481.11,712.26h-20.05c-.49-4.82-1.72-9.56-3.59-14.05h-28.96l-1.14,2.37c-1.76,3.63-2.57,7.64-2.37,11.68h-10.21c4.49-4.9,8.25-10.5,11.15-16.5l11.84-24.55c2.12-4.45,2.12-9.64-.08-14.09h13.64l16.66,34.59c3.51,7.35,7.92,14.25,13.11,20.54Zm-25.24-17.52l-12.78-26.59-12.91,26.59h25.69Z"/>
          <path class="cls-1" d="M544.69,657.11s-3.31,3.59-3.31,12.21v42.92h-6.55c-1.89,0-3.68-.88-4.84-2.37l-36.82-47.51-.02,37.67c0,6.98,2.17,10.7,3.02,11.84l.29,.37h-10.09l.29-.37c.86-1.14,3.02-4.86,3.02-11.84v-30.71c0-8.62-3.31-12.21-3.31-12.21h15.21c1.9,0,3.68,.88,4.84,2.38l31.46,40.65,.02-30.81c0-8.62-3.31-12.21-3.31-12.21h10.08Z"/>
          <path class="cls-1" d="M571.2,711.89l.29,.37h-18.87l.29-.37c.86-1.14,3.02-4.86,3.02-11.84v-30.71c0-8.62-3.31-12.21-3.31-12.21h18.87s-3.31,3.59-3.31,12.21v30.71c0,6.98,2.16,10.7,3.02,11.84Z"/>
          <path class="cls-1" d="M630.13,696.42c0,12.16-13,17.15-25.84,17.15-8.48,0-18.99-4-23.01-10.66-1.94-3.22,.54-7.4,4.21-7.4h5.8c0,11.64,7.21,14.78,13.1,14.78,4.68,0,13.49-3.14,13.49-13.88,0-3.24-8.12-6.16-15.02-7.21-13.27-2.1-23.14-6.49-23.14-16.87,0-11.71,14.35-16.35,24.39-16.7,7.56,0,19.39,3.32,23.08,11.85,1.34,3.11-1.15,6.59-4.44,6.59h-6.26c0-11.86-6.2-14.98-12.18-14.98-5.63,0-12.33,3.12-12.33,13.23,0,5.14,8.23,6.52,13.24,7.32,13.22,2.09,24.92,5.94,24.92,16.77Z"/>
          <path class="cls-1" d="M701.42,711.89l.29,.37h-18.87l.29-.37c.86-1.14,3.02-4.86,3.02-11.84v-14.37h-32.51v14.37c0,6.98,2.16,10.7,3.02,11.84l.29,.37h-18.87l.29-.37c.86-1.14,3.02-4.86,3.02-11.84v-30.71c0-8.62-3.31-12.21-3.31-12.21h18.87s-3.31,3.59-3.31,12.21v12.87h32.51v-12.87c0-8.62-3.31-12.21-3.31-12.21h18.87s-3.31,3.59-3.31,12.21v30.71c0,6.98,2.17,10.7,3.02,11.84Z"/>
          <path class="cls-1" d="M769.95,712.26h-13.56c-3.2,0-6.21-1.52-8.1-4.1l-9.69-14.14c-1.5-1.6-3.11-3.4-6.29-3.4-4.35,0-6.76,2.35-6.76,6.7v2.73c0,6.98,2.16,10.7,3.02,11.84l.29,.37h-18.96l.29-.37c.86-1.14,3.02-4.86,3.02-11.84v-30.71c0-8.62-3.31-12.21-3.31-12.21h36.64c4.78,0,9.11,1.92,12.25,5.07,3.15,3.14,5.11,7.47,5.11,12.29,0,8.78-6.54,15.23-14.99,16.21,1.76,.69,3.27,1.84,4.41,3.39l7.6,10.33c2.37,3.27,5.47,5.92,9.03,7.84Zm-18.39-37.78c0-7.31-5.96-13.89-13.27-13.89h-12.77l.04,26.55h12.73c7.31,0,13.27-5.35,13.28-12.66Z"/>
          <path class="cls-1" d="M794.4,711.89l.29,.37h-18.87l.29-.37c.86-1.14,3.02-4.86,3.02-11.84v-30.71c0-8.62-3.31-12.21-3.31-12.21h18.87s-3.31,3.59-3.31,12.21v30.71c0,6.98,2.16,10.7,3.02,11.84Z"/>
          <path class="cls-1" d="M319.23,752.19v15.01h7.8c2.78,0,5.57-1.22,8.06-2.48v7.09l-.03-.03c-2.49-1.23-5.22-2.34-7.98-2.34h-7.85l.03,8.11c0,4.49,1.39,6.88,1.94,7.61l.18,.24h-12.15l.18-.24c.55-.74,1.94-3.12,1.94-7.61v-19.74c0-5.54-2.13-7.85-2.13-7.85h28.32v7.09c-2.44-2.44-5.75-4.86-9.19-4.86h-9.14Z"/>
          <path class="cls-1" d="M381.34,767.67c0,10.32-6.8,18.68-19.6,18.68s-19.6-8.37-19.6-18.68,6.8-18.68,19.6-18.68,19.6,8.36,19.6,18.68Zm-8.6-4.01c-3.6-9.88-10.2-13.77-16.65-11.42-6.45,2.35-8.8,10.06-5.38,19.45,3.42,9.39,10.2,13.81,16.65,11.46,6.44-2.35,8.8-10.1,5.38-19.49Z"/>
          <path class="cls-1" d="M418.06,749.95h6.43l-.18,.24c-.47,.63-1.6,2.52-1.89,5.96v.16c-.03,.45-.03,13.1-.03,13.1,0,11.23-7.63,16.92-16.92,16.92-4.65,0-9.51-1.89-12.53-4.94-3.04-3.04-4.86-7.36-4.86-12.01v-11.58c0-4.49-1.39-6.88-1.94-7.61l-.18-.24h12.1l-.18,.24c-.47,.63-1.6,2.52-1.89,5.96v.16c-.03,.45-.03,.92-.03,1.39v12.44c0,6.77,4.77,13.99,11.54,13.99,7.65,0,12.71-6.74,12.71-14.04v-13.47c0-3.3-1.39-5.69-1.94-6.43l-.18-.24h0Z"/>
          <path class="cls-1" d="M466.62,749.95s-2.13,2.31-2.13,7.85v27.59h-4.21c-1.22,0-2.37-.56-3.11-1.53l-23.67-30.54v24.21c-.01,4.49,1.38,6.88,1.93,7.61l.18,.24h-6.48l.18-.24c.55-.74,1.94-3.12,1.94-7.61v-19.74c0-5.54-2.13-7.85-2.13-7.85h9.78c1.22,0,2.37,.56,3.11,1.53l20.22,26.13,.02-19.8c0-5.54-2.13-7.85-2.13-7.85h6.48Z"/>
          <path class="cls-1" d="M509.75,767.68c0,9.79-7.93,17.72-17.72,17.72h-20.31l.18-.24c.55-.74,1.94-3.12,1.94-7.61v-19.74c0-5.54-2.13-7.85-2.13-7.85h20.31c9.79,0,17.72,7.93,17.72,17.72Zm-22.94-15.49h-5.13v30.98h4.09c8.11,0,15.31-6.36,16.06-14.43,.86-9.23-6.72-16.55-15.03-16.55Z"/>
          <path class="cls-1" d="M552.22,785.4h-12.89c-.31-3.1-1.1-6.14-2.31-9.03h-18.61l-.73,1.52c-1.13,2.34-1.65,4.91-1.52,7.51h-6.56c2.89-3.15,5.3-6.75,7.17-10.61l7.61-15.78c1.36-2.86,1.36-6.2-.05-9.06h8.77l10.71,22.24c2.26,4.73,5.09,9.16,8.43,13.21Zm-16.22-11.26l-8.22-17.09-8.3,17.09h16.51Z"/>
          <path class="cls-1" d="M584.62,749.96v7.09c-2.44-2.44-5.74-4.86-9.19-4.86h-4.99v25.46c0,.47,0,.94,.03,1.39v.16c.29,3.44,1.42,5.33,1.89,5.96l.18,.24h-12.13l.18-.24c.55-.74,1.94-3.12,1.94-7.61l.03-25.36h-5.01c-3.45,0-6.75,2.42-9.19,4.86v-7.09h36.25Z"/>
          <path class="cls-1" d="M600.57,785.16l.18,.24h-12.13l.18-.24c.55-.74,1.94-3.12,1.94-7.61v-19.74c0-5.54-2.13-7.85-2.13-7.85h12.13s-2.13,2.31-2.13,7.85v19.74c0,4.49,1.39,6.88,1.94,7.61Z"/>
          <path class="cls-1" d="M645.13,767.67c0,10.32-6.8,18.68-19.6,18.68s-19.6-8.37-19.6-18.68,6.8-18.68,19.6-18.68,19.6,8.36,19.6,18.68Zm-8.6-4.01c-3.6-9.88-10.2-13.77-16.65-11.42-6.45,2.35-8.8,10.06-5.38,19.45,3.42,9.39,10.2,13.81,16.65,11.46,6.44-2.35,8.8-10.1,5.38-19.49Z"/>
          <path class="cls-1" d="M687.73,749.95s-2.13,2.31-2.13,7.85v27.59h-4.21c-1.22,0-2.37-.56-3.11-1.53l-23.67-30.54v24.21c-.01,4.49,1.38,6.88,1.93,7.61l.18,.24h-6.48l.18-.24c.55-.74,1.94-3.12,1.94-7.61v-19.74c0-5.54-2.13-7.85-2.13-7.85h9.78c1.22,0,2.37,.56,3.11,1.53l20.22,26.13,.02-19.8c0-5.54-2.13-7.85-2.13-7.85h6.48Z"/>
        </g>
        <g>
          <g>
            <path class="cls-1" d="M606.12,287.74c.99,10.04-1.52,20.35-7.51,28.95,9.55,31.15,2,66.41-22.64,91.05-16.1,16.1-36.74,24.91-57.79,26.4-3.4,6.66-7.87,12.82-13.31,18.26-13.64,13.64-31.79,21.16-51.09,21.16-1.71,0-3.4-.06-5.08-.18,46.43,19.85,102.25,10.83,140.14-27.06,43.07-43.07,48.83-109.32,17.29-158.59Zm-67.73-31.26c7.2-5.03,15.75-7.74,24.72-7.74,1.41,0,2.82,.07,4.21,.21-49.27-31.52-115.5-25.74-158.55,17.32-37.89,37.89-46.91,93.72-27.05,140.15-.12-1.69-.18-3.39-.18-5.09,0-19.3,7.51-37.44,21.16-51.09,5.44-5.44,11.59-9.91,18.26-13.31,1.5-21.06,10.3-41.7,26.4-57.8,24.64-24.64,59.9-32.18,91.04-22.64Z"/>
            <path class="cls-1" d="M430.98,460.78c-8.1-3.1-15.7-7.91-22.23-14.44-6.53-6.53-11.34-14.12-14.44-22.22,9.24,.45,18.35,4.21,25.4,11.26s10.81,16.17,11.26,25.4Z"/>
            <path class="cls-1" d="M498.79,356.3c-24.86-24.87-65.17-24.87-90.04,0-17.4,17.41-22.62,42.39-15.65,64.33,10.52,.17,21.01,4.27,29.04,12.32,8.03,8.03,12.14,18.51,12.32,29.04,21.95,6.97,46.93,1.75,64.33-15.66,24.87-24.86,24.87-65.17,0-90.04Zm-13.67,44.77c-.17,.96-1.02,1.66-2.01,1.66-.5,0-.96-.18-1.32-.49-.35-.3-.61-.74-.69-1.23-2.19-13.57-12.91-24.29-26.48-26.48-.99-.16-1.72-1.01-1.72-2,0-.49,.17-.95,.47-1.31,.3-.35,.71-.61,1.19-.7,1.51-.27,3.05-.41,4.63-.41,14.48,0,26.33,11.84,26.33,26.32,0,1.58-.14,3.13-.41,4.64Z"/>
            <path class="cls-1" d="M587.8,265.27c-7.63,4.85-17.85,3.94-24.51-2.72-1.97-1.97-3.44-4.26-4.4-6.7,10.22-1.18,20.84,1.96,28.91,9.43Z"/>
            <path class="cls-1" d="M590.61,293.51c-6.56-6.56-8.18-16.2-4.86-24.28-8.08,3.32-17.71,1.7-24.27-4.86-2.37-2.38-4.1-5.16-5.18-8.12-6.93,1.32-13.55,4.65-18.91,10.01-14.2,14.21-14.2,37.24,0,51.45,14.21,14.21,37.24,14.21,51.45,0,5.38-5.38,8.72-12.02,10.03-18.97-3.01-1.08-5.84-2.82-8.25-5.23Zm-27.29,15.6c-1.29,.32-2.64,.46-4.05,.41-7.66-.31-13.8-6.81-13.71-14.47,.02-1.13,.16-2.22,.42-3.27,.13-.52,.6-.89,1.14-.89s1.05,.4,1.14,.95c1.37,7.62,7.38,13.62,14.99,14.99,.55,.1,.95,.59,.95,1.15s-.37,1.02-.9,1.14Z"/>
            <path class="cls-1" d="M599.25,296.13c-2.49-.95-4.82-2.44-6.83-4.45-6.66-6.66-7.57-16.88-2.72-24.52,7.54,8.06,10.72,18.72,9.55,28.96Z"/>
            <path class="cls-1" d="M411.05,454.34c-1.96-1.96-3.76-4.01-5.41-6.14-.5,1.04-2.87,5.54-6.76,6.66,0,0-5.02,1.96-5.65,5.65,0,0-.76-4.07,4.78-7.01,.93-.32,1.99-.78,3.1-1.44,2.09-1.25,3.55-2.74,4.5-3.9-1.56-2.01-2.97-4.1-4.25-6.25l-9.13,2.13c-9.55,2.23-17.75,13.39-8.51,22.63,0,0-2.17-5.17,.9-9.23-.31,1.63-.68,4.76,.38,8.46,.36,1.26,.82,2.39,1.33,3.37,1.13,2.19,2.46,3.69,3.26,4.52,0,0-.17-.65-.02-1.37,.1-.55,.39-1.13,1.04-1.52,0,0,1.26,3.41,4.52,4.3,.01,0,.01,0,.02,0,.55,.11,1.1,.18,1.64,.19,.02,.01,.06,0,.1,0-.17-.08-1.98-1.03-1.96-2.25,.11,.18,1.52,2.4,5.12,1.89,5.29-1.41,9.69-6.56,11-12.17l1.63-6.96c-.55-.5-1.09-1.02-1.63-1.56Zm-17.12-1.63c.13-.31,2.6-5.85,8.4-4.56,0,0-5.13,.53-8.4,4.56Zm-5.82,.15s4.66-9.26,14.3-7.14c-.46,0-8.49,0-14.3,7.14Zm14.6,5.5s2.06-1.09,2.8-2.94c0,0-.24,2.54-2.26,3.57,0,0-2.29,1.15-2.12,2.94,0,0-.86-2.03,1.57-3.57Zm-2.65,8.28c7.4-5.45,7.81-13.47,7.82-13.92,1.61,9.53-7.47,13.76-7.82,13.92Z"/>
            <path class="cls-1" d="M581.21,244.78s-.08-.02-.13-.03l-.39-.11c-.8-.14-1.21,.21-1.21,.21,2.36,2.13,.88,5.6,.77,5.85,1.04-4.32-2.89-6.94-2.89-6.94-4.64-.61-6.71,4.32-5.63,8.07l.74,2.59c2.63,.62,5.19,1.55,7.65,2.76h0l2.5-2.27c3.06-2.79,3.8-8.56-1.41-10.13Zm-5.07,1.19c-.04,.15-.59,2.26,1.54,4.1-.15-.06-3.08-1.27-1.54-4.1Zm3.26,7.91c.05-.34,.63-4.89-2.7-7.76,.23,.12,4.78,2.52,2.7,7.76Z"/>
            <path class="cls-1" d="M611.08,276.79v-.03c-.12-.38-.65-1.92-1.88-2.56,0,0,.89-.03,1.39,.89l-.34-1.18c-1.53-5.34-7.38-4.6-10.17-1.5l-2.68,2.96c.97,2.24,1.7,4.55,2.19,6.9l3.61,1.02c3.97,1.12,9.25-1.27,7.88-6.5Zm-11.97-.05c.02-.15,.47-3.3,3.59-2.51-.11,0-2.32-.04-3.59,2.51Zm6.59-.38c-.13-.07-2.94-1.48-6.11,1.02,.1-.15,2.58-3.95,6.11-1.02Zm-5.62,3.77s4.55,1.72,8.17-1.08c-.11,.15-3.41,4.21-8.17,1.08Z"/>
          </g>
          <g>
            <path class="cls-1" d="M452.89,563.5c-4.06-20.16-27.55-42.29-43.67-53.97-1.1,8.06,2.3,36.84,26.29,49.13-23.63-3.39-54.86,8.46-60.31,11.87,27.02,12.15,62.82,11.76,77.68-7.03Z"/>
            <path class="cls-1" d="M411.32,550.16c.35-19.4-17.49-46.61-29.76-60.39-2.96,8.15-6.19,35.54,15.25,52.77-24.17-9.41-55.42-4.22-60.98-2.41,23.48,18.31,57.97,24.54,75.5,10.02Z"/>
            <path class="cls-1" d="M375.28,528.22c3.79-18.39-8.47-48.44-17.53-62.91-7.95,13.88-8.77,37.62,5.94,53.84-22.91-14.04-52.29-14.71-58.59-14.01,19.86,22.89,51.91,33.41,70.18,23.08Z"/>
            <path class="cls-1" d="M343.42,499.89c7.43-16.2,2.78-47.78-3.83-64.32-6.24,7.5-18.35,30.34-4.58,54.1-18.78-18.53-44.06-25.25-53.83-26.19,15.37,27.62,44.38,41.88,62.24,36.41Z"/>
            <path class="cls-1" d="M318.49,464.53c11.09-14.98,10.27-49.18,8.12-63.66-12.09,9.01-22.27,26.68-17.3,45.68-10.98-15.87-35.48-29.49-43.89-32.68,8.53,33.08,35.68,52.42,53.07,50.66Z"/>
            <path class="cls-1" d="M300.13,422.77c9.77-8.61,20.47-34.72,20.72-55.56-15.72,8.54-26.37,24.79-23.55,45.92-6.7-16.8-17.42-32.93-35.95-44.01,1.93,29.17,22.39,52.07,38.77,53.64Z"/>
            <path class="cls-1" d="M291.8,381.74c10.92-5.51,27.15-27.87,30.64-50.23-17.08,6.62-29.14,20.26-31.07,41.43-2.66-17.29-8.3-33.52-26.38-48.72-2.81,27.4,12.65,52.62,26.81,57.52Z"/>
            <path class="cls-1" d="M292.25,338.77c11.13-2.59,31.38-20.14,38.51-42.04-17.53,3.94-30.67,14.03-37.2,34.61,1.28-19.69-2.42-34.87-15.79-50.99-7.75,26.08,3.73,51.84,14.48,58.43Z"/>
            <path class="cls-1" d="M299.96,300.84c9.61-.05,33.13-11.72,44.15-33.22-17.88,1.18-31.24,8.27-41.74,27.12,5.7-21.55,3.11-35.4-5.83-51.47-12.11,23.63-4.85,50.03,3.43,57.57Z"/>
            <path class="cls-1" d="M315.68,263.56c9.07,1.81,33.5-4.65,48.05-22.8-17.09-2.34-31.06,1.76-44.6,17.51,9.54-19.22,9.77-32.78,4.44-49.66-15.99,19.95-14.24,46.25-7.89,54.95Z"/>
            <path class="cls-1" d="M442.43,523.71c.5,7.66,10.21,35.91,35.24,43.25-24.82,1.75-52.21,20.37-56.11,24.32,31.55,6.53,66.04-2.53,75.45-23.21-9.44-19.73-34.83-35.24-54.57-44.36Z"/>
            <path class="cls-1" d="M337.43,233.03c16.67,.57,29.36-17.38,34.28-33.46-17.73,2.4-36.39,16.87-34.28,33.46Z"/>
          </g>
          <g>
            <path class="cls-1" d="M544.7,563.5c4.06-20.16,27.55-42.29,43.67-53.97,1.1,8.06-2.3,36.84-26.29,49.13,23.63-3.39,54.86,8.46,60.31,11.87-27.02,12.15-62.82,11.76-77.68-7.03Z"/>
            <path class="cls-1" d="M586.27,550.16c-.35-19.4,17.49-46.61,29.76-60.39,2.96,8.15,6.19,35.54-15.25,52.77,24.17-9.41,55.42-4.22,60.98-2.41-23.48,18.31-57.97,24.54-75.5,10.02Z"/>
            <path class="cls-1" d="M622.31,528.22c-3.79-18.39,8.47-48.44,17.53-62.91,7.95,13.88,8.77,37.62-5.94,53.84,22.91-14.04,52.29-14.71,58.59-14.01-19.86,22.89-51.91,33.41-70.18,23.08Z"/>
            <path class="cls-1" d="M654.17,499.89c-7.43-16.2-2.78-47.78,3.83-64.32,6.24,7.5,18.35,30.34,4.58,54.1,18.78-18.53,44.06-25.25,53.83-26.19-15.37,27.62-44.38,41.88-62.24,36.41Z"/>
            <path class="cls-1" d="M679.1,464.53c-11.09-14.98-10.27-49.18-8.12-63.66,12.09,9.01,22.27,26.68,17.3,45.68,10.98-15.87,35.48-29.49,43.89-32.68-8.53,33.08-35.68,52.42-53.07,50.66Z"/>
            <path class="cls-1" d="M697.46,422.77c-9.77-8.61-20.47-34.72-20.72-55.56,15.72,8.54,26.37,24.79,23.55,45.92,6.7-16.8,17.42-32.93,35.95-44.01-1.93,29.17-22.39,52.07-38.77,53.64Z"/>
            <path class="cls-1" d="M705.79,381.74c-10.92-5.51-27.15-27.87-30.64-50.23,17.08,6.62,29.14,20.26,31.07,41.43,2.66-17.29,8.3-33.52,26.38-48.72,2.81,27.4-12.65,52.62-26.81,57.52Z"/>
            <path class="cls-1" d="M705.33,338.77c-11.13-2.59-31.38-20.14-38.51-42.04,17.53,3.94,30.67,14.03,37.2,34.61-1.28-19.69,2.42-34.87,15.79-50.99,7.75,26.08-3.73,51.84-14.48,58.43Z"/>
            <path class="cls-1" d="M697.63,300.84c-9.61-.05-33.13-11.72-44.15-33.22,17.88,1.18,31.24,8.27,41.74,27.12-5.7-21.55-3.11-35.4,5.83-51.47,12.11,23.63,4.85,50.03-3.43,57.57Z"/>
            <path class="cls-1" d="M681.91,263.56c-9.07,1.81-33.5-4.65-48.05-22.8,17.09-2.34,31.06,1.76,44.6,17.51-9.54-19.22-9.77-32.78-4.44-49.66,15.99,19.95,14.24,46.25,7.89,54.95Z"/>
            <path class="cls-1" d="M555.16,523.71c-.5,7.66-10.21,35.91-35.24,43.25,24.82,1.75,52.21,20.37,56.11,24.32-31.55,6.53-66.04-2.53-75.45-23.21,9.44-19.73,34.83-35.24,54.57-44.36Z"/>
            <path class="cls-1" d="M660.16,233.03c-16.67,.57-29.36-17.38-34.28-33.46,17.73,2.4,36.39,16.87,34.28,33.46Z"/>
          </g>
        </g>
      </g>
    </g>
  </g>
</svg>