<?xml version="1.0" encoding="UTF-8"?>
<svg id="Final_Designs" data-name="Final Designs" xmlns="http://www.w3.org/2000/svg" viewBox="0 0 2655 1000">
  <defs>
    <style>
      .cls-1 {
        fill: #033631;
      }

      .cls-2 {
        fill: none;
      }
    </style>
  </defs>
  <g id="Alt_Trans_BG" data-name="Alt Trans BG">
    <g id="Secondary_Alt_Trans_BG_" data-name="Secondary (Alt Trans BG)">
      <rect class="cls-2" y="0" width="2655" height="1000"/>
      <g>
        <g>
          <path class="cls-1" d="M1011.34,476.86h-34.84c-8.23,0-15.96-3.92-20.82-10.55l-24.89-36.33c-3.85-4.11-7.99-8.73-16.17-8.73-11.18,0-17.35,6.03-17.35,17.21v7.02c0,17.94,5.56,27.49,7.76,30.43l.73,.95h-48.72l.73-.95c2.2-2.94,7.76-12.49,7.76-30.43v-78.9c0-22.14-8.5-31.37-8.5-31.37h94.14c12.27,0,23.4,4.93,31.47,13.01,8.08,8.08,13.12,19.2,13.12,31.58,0,22.56-16.79,39.14-38.51,41.66,4.51,1.78,8.39,4.72,11.33,8.71l19.52,26.55c6.09,8.4,14.06,15.21,23.21,20.15Zm-47.25-97.06c0-18.78-15.32-35.67-34.1-35.67h-32.82l.11,68.21h32.71c18.78,0,34.1-13.75,34.11-32.54Z"/>
          <path class="cls-1" d="M1189.34,476.86h-51.52c-1.26-12.38-4.41-24.55-9.23-36.1h-74.39l-2.94,6.09c-4.51,9.34-6.61,19.62-6.08,30.01h-26.23c11.54-12.59,21.2-26.97,28.65-42.39l30.43-63.06c5.45-11.43,5.45-24.76-.21-36.2h35.04l42.81,88.88c9.02,18.88,20.36,36.62,33.68,52.78Zm-64.84-45.01l-32.84-68.31-33.16,68.31h66Z"/>
          <path class="cls-1" d="M1386.92,475.92l.73,.95h-48.48l.84-.95c2.2-2.94,7.66-12.49,7.66-30.43v-74.18l-43.54,105.56h-34l-49.42-119.6v88.22c0,17.94,5.56,27.49,7.76,30.43l.73,.95h-25.91l.73-.95c2.2-2.94,7.76-12.49,7.76-30.43v-78.9c0-22.14-8.5-31.37-8.5-31.37h42.39l53.61,129.97,53.57-129.97h34.78s-8.5,9.23-8.5,31.37v78.9c0,17.94,5.67,27.49,7.76,30.43Z"/>
          <path class="cls-1" d="M1571.8,476.86h-51.52c-1.26-12.38-4.41-24.55-9.23-36.1h-74.39l-2.94,6.09c-4.51,9.34-6.61,19.62-6.08,30.01h-26.23c11.54-12.59,21.2-26.97,28.65-42.39l30.43-63.06c5.45-11.43,5.45-24.76-.21-36.2h35.04l42.81,88.88c9.02,18.88,20.36,36.62,33.68,52.78Zm-64.84-45.01l-32.84-68.31-33.16,68.31h66Z"/>
          <path class="cls-1" d="M1735.17,335.17s-8.5,9.23-8.5,31.37v110.28h-16.84c-4.86,0-9.45-2.25-12.43-6.09l-94.59-122.06-.04,96.79c0,17.94,5.56,27.49,7.76,30.43l.73,.94h-25.91l.73-.94c2.2-2.94,7.76-12.49,7.76-30.43v-78.9c0-22.14-8.5-31.37-8.5-31.37h39.08c4.87,0,9.46,2.26,12.44,6.11l80.84,104.42,.06-79.16c0-22.14-8.5-31.37-8.5-31.37h25.9Z"/>
          <path class="cls-1" d="M1803.28,475.92l.73,.95h-48.48l.73-.95c2.2-2.94,7.76-12.49,7.76-30.43v-78.9c0-22.14-8.5-31.37-8.5-31.37h48.48s-8.5,9.23-8.5,31.37v78.9c0,17.94,5.56,27.49,7.76,30.43Z"/>
          <path class="cls-1" d="M1954.68,436.17c0,31.25-33.4,44.06-66.37,44.06-21.78,0-48.78-10.29-59.12-27.39-4.98-8.27,1.4-19,10.82-19h14.89c0,29.91,18.52,37.98,33.65,37.98,12.02,0,34.65-8.08,34.65-35.65,0-8.33-20.87-15.83-38.6-18.52-34.09-5.38-59.44-16.68-59.44-43.35,0-30.09,36.86-42.01,62.65-42.91,19.42,0,49.82,8.53,59.29,30.45,3.45,7.98-2.95,16.94-11.42,16.94h-16.09c0-30.46-15.94-38.48-31.3-38.48-14.47,0-31.67,8-31.67,33.99,0,13.2,21.13,16.75,34.03,18.79,33.98,5.38,64.02,15.26,64.03,43.08Z"/>
          <path class="cls-1" d="M2137.84,475.92l.73,.95h-48.49l.73-.95c2.2-2.94,7.77-12.49,7.77-30.43v-36.92h-83.51v36.92c0,17.94,5.56,27.49,7.76,30.43l.73,.95h-48.49l.73-.95c2.2-2.94,7.76-12.49,7.76-30.43v-78.9c0-22.14-8.5-31.37-8.5-31.37h48.49s-8.5,9.23-8.5,31.37v33.06h83.51v-33.06c0-22.14-8.5-31.37-8.5-31.37h48.49s-8.5,9.23-8.5,31.37v78.9c0,17.94,5.56,27.49,7.76,30.43Z"/>
          <path class="cls-1" d="M2313.93,476.86h-34.84c-8.23,0-15.96-3.92-20.82-10.55l-24.89-36.33c-3.85-4.11-7.99-8.73-16.17-8.73-11.18,0-17.35,6.03-17.35,17.21v7.02c0,17.94,5.56,27.49,7.76,30.43l.73,.95h-48.72l.73-.95c2.2-2.94,7.76-12.49,7.76-30.43v-78.9c0-22.14-8.5-31.37-8.5-31.37h94.14c12.27,0,23.4,4.93,31.47,13.01,8.08,8.08,13.12,19.2,13.12,31.58,0,22.56-16.79,39.14-38.51,41.66,4.51,1.78,8.39,4.72,11.33,8.71l19.52,26.55c6.09,8.4,14.06,15.21,23.21,20.15Zm-47.25-97.06c0-18.78-15.32-35.67-34.1-35.67h-32.82l.11,68.21h32.71c18.78,0,34.1-13.75,34.11-32.54Z"/>
          <path class="cls-1" d="M2376.77,475.92l.73,.95h-48.48l.73-.95c2.2-2.94,7.76-12.49,7.76-30.43v-78.9c0-22.14-8.5-31.37-8.5-31.37h48.48s-8.5,9.23-8.5,31.37v78.9c0,17.94,5.56,27.49,7.76,30.43Z"/>
          <path class="cls-1" d="M880.07,579.43v38.57h20.03c7.15,0,14.3-3.14,20.71-6.38v18.21l-.07-.07c-6.41-3.16-13.43-6.02-20.51-6.02h-20.17l.07,20.85c0,11.53,3.57,17.68,4.99,19.56l.47,.61h-31.22l.47-.61c1.42-1.89,4.99-8.03,4.99-19.56v-50.73c0-14.24-5.47-20.17-5.47-20.17h72.77v18.21c-6.27-6.27-14.77-12.48-23.61-12.48h-23.47Z"/>
          <path class="cls-1" d="M1039.65,619.2c0,26.52-17.48,48.01-50.36,48.01s-50.36-21.5-50.36-48.01,17.49-48.01,50.36-48.01,50.36,21.49,50.36,48.01Zm-22.1-10.32c-9.24-25.38-26.21-35.38-42.78-29.35-16.57,6.03-22.61,25.84-13.82,49.97,8.78,24.12,26.21,35.49,42.78,29.46,16.56-6.03,22.61-25.96,13.83-50.08Z"/>
          <path class="cls-1" d="M1133.99,573.69h16.53l-.47,.61c-1.22,1.62-4.12,6.47-4.86,15.31v.41c-.07,1.15-.07,33.66-.07,33.66,0,28.86-19.6,43.48-43.48,43.48-11.94,0-24.45-4.86-32.2-12.68-7.82-7.83-12.5-18.92-12.5-30.86v-29.75c0-11.54-3.58-17.68-5-19.56l-.47-.61h31.09l-.47,.61c-1.22,1.62-4.12,6.47-4.86,15.31v.41c-.07,1.15-.07,2.36-.07,3.57v31.98c0,17.4,12.24,35.95,29.65,35.95,19.66,0,32.65-17.32,32.65-36.09v-34.61c0-8.49-3.58-14.63-4.99-16.52l-.47-.61h0Z"/>
          <path class="cls-1" d="M1258.75,573.67s-5.46,5.94-5.46,20.17v70.9h-10.83c-3.12,0-6.08-1.45-7.99-3.92l-60.81-78.47-.03,62.22c0,11.53,3.58,17.67,4.99,19.56l.47,.61h-16.66l.47-.61c1.42-1.89,4.99-8.03,4.99-19.56v-50.73c0-14.24-5.47-20.17-5.47-20.17h25.12c3.13,0,6.08,1.45,8,3.93l51.97,67.13,.04-50.89c0-14.24-5.47-20.17-5.47-20.17h16.66Z"/>
          <path class="cls-1" d="M1369.56,619.23c0,25.16-20.37,45.53-45.53,45.53h-52.19l.47-.61c1.42-1.89,4.99-8.03,4.99-19.56v-50.73c0-14.24-5.47-20.17-5.47-20.17h52.19c25.16,0,45.53,20.37,45.53,45.53Zm-58.94-39.8h-13.18v79.6h10.52c20.84,0,39.34-16.33,41.27-37.08,2.21-23.71-17.26-42.52-38.61-42.52Z"/>
          <path class="cls-1" d="M1478.69,664.76h-33.12c-.81-7.96-2.84-15.78-5.94-23.2h-47.83l-1.89,3.92c-2.9,6-4.25,12.61-3.91,19.29h-16.87c7.42-8.09,13.63-17.34,18.42-27.25l19.56-40.54c3.51-7.35,3.51-15.92-.14-23.27h22.53l27.52,57.14c5.8,12.14,13.09,23.54,21.65,33.93Zm-41.69-28.94l-21.11-43.92-21.32,43.92h42.43Z"/>
          <path class="cls-1" d="M1561.95,573.7v18.21c-6.27-6.26-14.76-12.48-23.62-12.48h-12.81v65.43c0,1.22,0,2.43,.07,3.58v.41c.74,8.84,3.64,13.69,4.86,15.31l.47,.61h-31.17l.47-.61c1.42-1.89,4.99-8.03,4.99-19.56l.07-65.16h-12.88c-8.86,0-17.36,6.22-23.62,12.48v-18.21h93.16Z"/>
          <path class="cls-1" d="M1602.91,664.16l.47,.61h-31.17l.47-.61c1.42-1.89,4.99-8.03,4.99-19.56v-50.73c0-14.24-5.47-20.17-5.47-20.17h31.17s-5.46,5.94-5.46,20.17v50.73c0,11.53,3.57,17.68,4.99,19.56Z"/>
          <path class="cls-1" d="M1717.42,619.2c0,26.52-17.48,48.01-50.36,48.01s-50.36-21.5-50.36-48.01,17.49-48.01,50.36-48.01,50.36,21.49,50.36,48.01Zm-22.1-10.32c-9.24-25.38-26.21-35.38-42.78-29.35-16.57,6.03-22.61,25.84-13.82,49.97,8.78,24.12,26.21,35.49,42.78,29.46,16.56-6.03,22.61-25.96,13.83-50.08Z"/>
          <path class="cls-1" d="M1826.85,573.67s-5.46,5.94-5.46,20.17v70.9h-10.83c-3.12,0-6.08-1.45-7.99-3.92l-60.81-78.47-.03,62.22c0,11.53,3.58,17.67,4.99,19.56l.47,.61h-16.66l.47-.61c1.42-1.89,4.99-8.03,4.99-19.56v-50.73c0-14.24-5.47-20.17-5.47-20.17h25.12c3.13,0,6.08,1.45,8,3.93l51.97,67.13,.04-50.89c0-14.24-5.47-20.17-5.47-20.17h16.66Z"/>
        </g>
        <g>
          <g>
            <path class="cls-1" d="M634.48,387.42c1.03,10.39-1.58,21.07-7.78,29.98,9.89,32.25,2.07,68.76-23.44,94.28-16.67,16.67-38.04,25.79-59.84,27.34-3.52,6.9-8.15,13.27-13.78,18.9-14.13,14.13-32.92,21.91-52.9,21.91-1.77,0-3.52-.06-5.26-.18,48.07,20.55,105.87,11.21,145.1-28.02,44.59-44.59,50.56-113.19,17.9-164.21Zm-70.13-32.36c7.45-5.21,16.31-8.02,25.59-8.02,1.46,0,2.92,.07,4.36,.21-51.02-32.63-119.59-26.65-164.17,17.93-39.23,39.23-48.57,97.04-28.01,145.11-.12-1.75-.18-3.51-.18-5.27,0-19.99,7.78-38.77,21.91-52.9,5.63-5.63,12-10.26,18.9-13.78,1.55-21.81,10.67-43.17,27.33-59.85,25.52-25.51,62.02-33.32,94.27-23.44Z"/>
            <path class="cls-1" d="M453.14,566.58c-8.39-3.21-16.25-8.19-23.01-14.96-6.76-6.76-11.74-14.62-14.95-23.01,9.57,.47,19,4.36,26.3,11.66,7.31,7.31,11.19,16.74,11.66,26.3Z"/>
            <path class="cls-1" d="M523.35,458.4c-25.74-25.75-67.48-25.75-93.23,0-18.02,18.03-23.42,43.89-16.21,66.61,10.9,.18,21.75,4.43,30.07,12.75,8.32,8.32,12.57,19.17,12.75,30.07,22.72,7.22,48.59,1.81,66.61-16.21,25.75-25.74,25.75-67.48,0-93.23Zm-14.16,46.36c-.18,1-1.06,1.72-2.08,1.72-.52,0-1-.19-1.36-.5-.37-.31-.63-.76-.71-1.27-2.27-14.05-13.37-25.15-27.42-27.42-1.03-.17-1.78-1.04-1.78-2.07,0-.51,.18-.98,.49-1.36,.31-.37,.73-.63,1.23-.72,1.56-.28,3.16-.42,4.79-.42,15,0,27.26,12.26,27.26,27.26,0,1.64-.14,3.24-.42,4.8Z"/>
            <path class="cls-1" d="M615.51,364.15c-7.9,5.02-18.49,4.08-25.38-2.82-2.04-2.04-3.56-4.41-4.55-6.94,10.58-1.23,21.58,2.03,29.93,9.76Z"/>
            <path class="cls-1" d="M618.42,393.39c-6.8-6.8-8.47-16.77-5.04-25.14-8.37,3.44-18.33,1.76-25.13-5.04-2.46-2.46-4.25-5.34-5.36-8.41-7.18,1.36-14.03,4.82-19.58,10.37-14.71,14.71-14.71,38.56,0,53.27,14.71,14.71,38.56,14.71,53.28,0,5.57-5.57,9.03-12.44,10.38-19.64-3.12-1.11-6.04-2.92-8.54-5.42Zm-28.26,16.15c-1.33,.33-2.74,.48-4.19,.42-7.93-.33-14.29-7.05-14.19-14.99,.02-1.17,.17-2.3,.43-3.39,.14-.54,.62-.92,1.19-.92s1.08,.41,1.19,.98c1.42,7.89,7.64,14.1,15.52,15.52,.57,.11,.98,.61,.98,1.19s-.39,1.05-.93,1.19Z"/>
            <path class="cls-1" d="M627.37,396.1c-2.58-.98-4.99-2.52-7.07-4.6-6.89-6.89-7.83-17.48-2.82-25.38,7.8,8.35,11.1,19.38,9.89,29.99Z"/>
            <path class="cls-1" d="M432.5,559.92c-2.03-2.03-3.89-4.15-5.6-6.36-.52,1.08-2.97,5.74-7,6.89,0,0-5.2,2.03-5.85,5.85,0,0-.79-4.22,4.95-7.26,.96-.33,2.06-.81,3.21-1.49,2.17-1.3,3.68-2.83,4.66-4.04-1.61-2.09-3.08-4.25-4.4-6.47l-9.45,2.2c-9.89,2.31-18.38,13.87-8.81,23.44,0,0-2.25-5.36,.93-9.56-.32,1.68-.7,4.92,.39,8.76,.37,1.3,.85,2.47,1.37,3.49,1.17,2.27,2.54,3.82,3.38,4.68,0,0-.18-.67-.02-1.42,.11-.57,.4-1.17,1.08-1.57,0,0,1.3,3.53,4.68,4.45,.01,0,.01,0,.02,0,.57,.12,1.14,.18,1.7,.2,.02,.01,.06,0,.1,0-.17-.08-2.05-1.07-2.03-2.33,.11,.18,1.58,2.48,5.3,1.96,5.48-1.46,10.04-6.79,11.39-12.6l1.68-7.21c-.57-.52-1.13-1.06-1.68-1.61Zm-17.73-1.69c.14-.33,2.69-6.06,8.7-4.72,0,0-5.31,.55-8.7,4.72Zm-6.03,.16s4.83-9.59,14.8-7.39c-.48,0-8.79,0-14.8,7.39Zm15.12,5.69s2.13-1.13,2.9-3.05c0,0-.25,2.62-2.34,3.7,0,0-2.38,1.19-2.19,3.05,0,0-.89-2.1,1.63-3.7Zm-2.74,8.57c7.66-5.64,8.08-13.95,8.1-14.41,1.67,9.87-7.74,14.25-8.1,14.41Z"/>
            <path class="cls-1" d="M608.68,342.93s-.08-.02-.13-.04l-.41-.12c-.82-.15-1.26,.22-1.26,.22,2.45,2.21,.91,5.8,.8,6.06,1.08-4.47-2.99-7.18-2.99-7.18-4.81-.63-6.94,4.47-5.83,8.35l.77,2.68c2.72,.65,5.37,1.6,7.92,2.86h0l2.58-2.35c3.16-2.89,3.93-8.86-1.46-10.49Zm-5.25,1.23c-.04,.16-.61,2.34,1.59,4.24-.15-.06-3.19-1.32-1.59-4.24Zm3.38,8.19c.05-.36,.65-5.07-2.8-8.03,.24,.12,4.95,2.61,2.8,8.03Z"/>
            <path class="cls-1" d="M639.61,376.08v-.03c-.12-.39-.67-1.99-1.94-2.65,0,0,.92-.04,1.44,.92l-.36-1.23c-1.59-5.53-7.64-4.76-10.54-1.55l-2.77,3.06c1,2.32,1.76,4.71,2.27,7.15l3.74,1.06c4.11,1.16,9.58-1.32,8.16-6.73Zm-12.39-.05c.02-.16,.49-3.41,3.72-2.6-.11,0-2.4-.04-3.72,2.6Zm6.83-.39c-.14-.07-3.05-1.53-6.33,1.05,.1-.16,2.67-4.09,6.33-1.05Zm-5.82,3.9s4.71,1.78,8.46-1.11c-.12,.15-3.53,4.36-8.46,1.11Z"/>
          </g>
          <g>
            <path class="cls-1" d="M475.82,672.95c-4.2-20.88-28.53-43.79-45.21-55.89-1.14,8.34,2.38,38.14,27.23,50.87-24.47-3.51-56.8,8.76-62.44,12.29,27.98,12.59,65.05,12.18,80.43-7.28Z"/>
            <path class="cls-1" d="M432.78,659.13c.37-20.08-18.1-48.26-30.82-62.53-3.07,8.43-6.41,36.8,15.79,54.64-25.03-9.74-57.38-4.36-63.14-2.49,24.32,18.96,60.02,25.41,78.17,10.38Z"/>
            <path class="cls-1" d="M395.47,636.41c3.92-19.04-8.77-50.16-18.16-65.14-8.24,14.37-9.08,38.96,6.15,55.74-23.72-14.53-54.15-15.23-60.66-14.51,20.57,23.7,53.75,34.59,72.67,23.9Z"/>
            <path class="cls-1" d="M362.47,607.08c7.7-16.78,2.88-49.48-3.97-66.6-6.46,7.77-19,31.42-4.74,56.01-19.44-19.19-45.62-26.15-55.74-27.12,15.92,28.6,45.95,43.36,64.45,37.7Z"/>
            <path class="cls-1" d="M336.66,570.47c11.48-15.52,10.63-50.92,8.41-65.91-12.52,9.32-23.06,27.63-17.91,47.3-11.37-16.43-36.74-30.54-45.45-33.84,8.83,34.25,36.94,54.27,54.95,52.45Z"/>
            <path class="cls-1" d="M317.65,527.24c10.11-8.91,21.19-35.95,21.46-57.52-16.28,8.84-27.3,25.67-24.38,47.55-6.93-17.39-18.04-34.1-37.22-45.57,2,30.2,23.18,53.91,40.15,55.54Z"/>
            <path class="cls-1" d="M309.02,484.75c11.31-5.7,28.11-28.86,31.72-52.01-17.69,6.85-30.17,20.98-32.17,42.9-2.76-17.9-8.6-34.71-27.32-50.45-2.91,28.37,13.1,54.48,27.76,59.56Z"/>
            <path class="cls-1" d="M309.5,440.25c11.53-2.68,32.49-20.85,39.88-43.53-18.15,4.08-31.75,14.53-38.52,35.83,1.32-20.39-2.5-36.11-16.35-52.8-8.02,27.01,3.87,53.68,14.99,60.5Z"/>
            <path class="cls-1" d="M317.47,400.98c9.95-.05,34.3-12.13,45.71-34.4-18.51,1.22-32.35,8.56-43.22,28.08,5.9-22.31,3.22-36.65-6.04-53.29-12.54,24.47-5.02,51.81,3.55,59.61Z"/>
            <path class="cls-1" d="M333.75,362.38c9.39,1.87,34.69-4.82,49.75-23.61-17.69-2.42-32.16,1.83-46.18,18.13,9.88-19.9,10.12-33.94,4.6-51.42-16.55,20.65-14.74,47.88-8.17,56.9Z"/>
            <path class="cls-1" d="M464.99,631.75c.51,7.94,10.57,37.19,36.49,44.78-25.7,1.81-54.06,21.09-58.1,25.19,32.67,6.76,68.38-2.62,78.12-24.03-9.77-20.43-36.07-36.49-56.51-45.93Z"/>
            <path class="cls-1" d="M356.27,330.77c17.26,.59,30.4-18,35.5-34.65-18.36,2.49-37.68,17.47-35.5,34.65Z"/>
          </g>
          <g>
            <path class="cls-1" d="M570.88,672.95c4.2-20.88,28.53-43.79,45.21-55.89,1.14,8.34-2.38,38.14-27.23,50.87,24.47-3.51,56.8,8.76,62.44,12.29-27.98,12.59-65.05,12.18-80.43-7.28Z"/>
            <path class="cls-1" d="M613.93,659.13c-.37-20.08,18.1-48.26,30.82-62.53,3.07,8.43,6.41,36.8-15.79,54.64,25.03-9.74,57.38-4.36,63.14-2.49-24.32,18.96-60.02,25.41-78.17,10.38Z"/>
            <path class="cls-1" d="M651.24,636.41c-3.92-19.04,8.77-50.16,18.16-65.14,8.24,14.37,9.08,38.96-6.15,55.74,23.72-14.53,54.15-15.23,60.66-14.51-20.57,23.7-53.75,34.59-72.67,23.9Z"/>
            <path class="cls-1" d="M684.23,607.08c-7.7-16.78-2.88-49.48,3.97-66.6,6.46,7.77,19,31.42,4.74,56.01,19.44-19.19,45.62-26.15,55.74-27.12-15.92,28.6-45.95,43.36-64.45,37.7Z"/>
            <path class="cls-1" d="M710.04,570.47c-11.48-15.52-10.63-50.92-8.41-65.91,12.52,9.32,23.06,27.63,17.91,47.3,11.37-16.43,36.74-30.54,45.45-33.84-8.83,34.25-36.94,54.27-54.95,52.45Z"/>
            <path class="cls-1" d="M729.06,527.24c-10.11-8.91-21.19-35.95-21.46-57.52,16.28,8.84,27.3,25.67,24.38,47.55,6.93-17.39,18.04-34.1,37.22-45.57-2,30.2-23.18,53.91-40.15,55.54Z"/>
            <path class="cls-1" d="M737.68,484.75c-11.31-5.7-28.11-28.86-31.72-52.01,17.69,6.85,30.17,20.98,32.17,42.9,2.76-17.9,8.6-34.71,27.32-50.45,2.91,28.37-13.1,54.48-27.76,59.56Z"/>
            <path class="cls-1" d="M737.21,440.25c-11.53-2.68-32.49-20.85-39.88-43.53,18.15,4.08,31.75,14.53,38.52,35.83-1.32-20.39,2.5-36.11,16.35-52.8,8.02,27.01-3.87,53.68-14.99,60.5Z"/>
            <path class="cls-1" d="M729.23,400.98c-9.95-.05-34.3-12.13-45.71-34.4,18.51,1.22,32.35,8.56,43.22,28.08-5.9-22.31-3.22-36.65,6.04-53.29,12.54,24.47,5.02,51.81-3.55,59.61Z"/>
            <path class="cls-1" d="M712.96,362.38c-9.39,1.87-34.69-4.82-49.75-23.61,17.69-2.42,32.16,1.83,46.18,18.13-9.88-19.9-10.12-33.94-4.6-51.42,16.55,20.65,14.74,47.88,8.17,56.9Z"/>
            <path class="cls-1" d="M581.71,631.75c-.51,7.94-10.57,37.19-36.49,44.78,25.7,1.81,54.06,21.09,58.1,25.19-32.67,6.76-68.38-2.62-78.12-24.03,9.77-20.43,36.07-36.49,56.51-45.93Z"/>
            <path class="cls-1" d="M690.43,330.77c-17.26,.59-30.4-18-35.5-34.65,18.36,2.49,37.68,17.47,35.5,34.65Z"/>
          </g>
        </g>
      </g>
    </g>
  </g>
</svg>