<?xml version="1.0" encoding="UTF-8"?>
<svg id="Final_Designs" data-name="Final Designs" xmlns="http://www.w3.org/2000/svg" viewBox="0 0 1000 1000">
  <defs>
    <style>
      .cls-1 {
        fill: #033631;
      }

      .cls-2 {
        fill: #fbfceb;
      }
    </style>
  </defs>
  <g id="Circle_Alt" data-name="Circle Alt">
    <g id="Sub_Mark_Circle_Alt_" data-name="Sub Mark Circle (Alt)">
      <circle class="cls-2" cx="500" cy="500" r="495"/>
      <g>
        <g>
          <path class="cls-1" d="M634.25,398.84c1.24,12.56-1.9,25.45-9.4,36.21,11.95,38.96,2.51,83.07-28.32,113.89-20.14,20.14-45.96,31.15-72.29,33.03-4.25,8.33-9.84,16.03-16.65,22.83-17.07,17.07-39.76,26.47-63.9,26.47-2.13,0-4.25-.07-6.36-.22,58.07,24.82,127.9,13.54,175.29-33.84,53.87-53.87,61.08-136.74,21.62-198.38Zm-84.72-39.1c9.01-6.29,19.7-9.69,30.92-9.69,1.77,0,3.52,.09,5.26,.26-61.63-39.42-144.47-32.2-198.33,21.66-47.39,47.39-58.68,117.23-33.84,175.3-.15-2.11-.22-4.24-.22-6.37,0-24.14,9.4-46.84,26.47-63.91,6.8-6.8,14.5-12.39,22.83-16.64,1.88-26.34,12.88-52.15,33.02-72.3,30.82-30.82,74.92-40.26,113.88-28.32Z"/>
          <path class="cls-1" d="M415.18,615.29c-10.14-3.87-19.63-9.9-27.8-18.07-8.17-8.17-14.19-17.67-18.06-27.8,11.56,.57,22.95,5.26,31.78,14.09,8.83,8.83,13.52,20.22,14.09,31.78Z"/>
          <path class="cls-1" d="M500,484.6c-31.1-31.1-81.52-31.1-112.62,0-21.77,21.78-28.3,53.02-19.58,80.47,13.16,.21,26.28,5.35,36.33,15.4,10.05,10.05,15.19,23.16,15.4,36.33,27.45,8.72,58.7,2.19,80.47-19.58,31.1-31.1,31.1-81.52,0-112.62Zm-17.1,56.01c-.21,1.2-1.28,2.08-2.51,2.08-.62,0-1.2-.23-1.65-.61-.44-.38-.76-.92-.86-1.54-2.74-16.97-16.15-30.38-33.13-33.13-1.24-.2-2.15-1.26-2.15-2.51,0-.62,.21-1.19,.59-1.64,.37-.44,.89-.77,1.49-.87,1.88-.34,3.82-.51,5.79-.51,18.12,0,32.93,14.81,32.93,32.93,0,1.98-.17,3.92-.51,5.8Z"/>
          <path class="cls-1" d="M611.34,370.74c-9.54,6.06-22.33,4.92-30.66-3.41-2.47-2.47-4.3-5.33-5.5-8.38,12.78-1.48,26.07,2.45,36.16,11.79Z"/>
          <path class="cls-1" d="M614.84,406.06c-8.21-8.21-10.24-20.26-6.08-30.37-10.11,4.16-22.15,2.13-30.36-6.08-2.97-2.98-5.13-6.45-6.48-10.16-8.67,1.65-16.95,5.82-23.66,12.53-17.77,17.77-17.77,46.59,0,64.35,17.77,17.77,46.59,17.77,64.36,0,6.73-6.73,10.91-15.03,12.54-23.73-3.77-1.35-7.3-3.52-10.32-6.54Zm-34.14,19.51c-1.61,.4-3.31,.58-5.06,.51-9.58-.39-17.26-8.52-17.14-18.1,.02-1.41,.2-2.78,.52-4.09,.16-.65,.75-1.12,1.43-1.12s1.31,.5,1.43,1.19c1.72,9.53,9.23,17.04,18.75,18.75,.69,.13,1.19,.74,1.19,1.44s-.47,1.27-1.12,1.43Z"/>
          <path class="cls-1" d="M625.66,409.34c-3.11-1.19-6.03-3.05-8.54-5.56-8.33-8.32-9.46-21.12-3.41-30.67,9.43,10.09,13.41,23.41,11.95,36.23Z"/>
          <path class="cls-1" d="M390.25,607.24c-2.45-2.45-4.7-5.02-6.76-7.68-.63,1.3-3.59,6.93-8.46,8.32,0,0-6.28,2.45-7.07,7.07,0,0-.95-5.1,5.98-8.77,1.16-.4,2.48-.97,3.88-1.8,2.62-1.57,4.45-3.42,5.63-4.87-1.95-2.52-3.72-5.13-5.31-7.82l-11.42,2.66c-11.95,2.79-22.2,16.75-10.64,28.31,0,0-2.72-6.47,1.12-11.55-.39,2.03-.84,5.95,.47,10.59,.45,1.57,1.03,2.99,1.66,4.22,1.41,2.74,3.07,4.62,4.08,5.65,0,0-.21-.81-.03-1.72,.13-.69,.49-1.41,1.3-1.9,0,0,1.57,4.27,5.65,5.38,.01,0,.01,0,.03,0,.69,.14,1.37,.22,2.05,.24,.03,.01,.07,0,.12,0-.21-.1-2.48-1.29-2.45-2.82,.14,.22,1.9,3,6.4,2.36,6.61-1.76,12.13-8.2,13.77-15.23l2.03-8.7c-.69-.62-1.37-1.28-2.03-1.95Zm-21.42-2.04c.16-.39,3.25-7.32,10.51-5.71,0,0-6.41,.66-10.51,5.71Zm-7.28,.19s5.83-11.58,17.88-8.93c-.58,0-10.62,0-17.88,8.93Zm18.27,6.88s2.58-1.36,3.51-3.68c0,0-.3,3.17-2.83,4.47,0,0-2.87,1.44-2.65,3.68,0,0-1.08-2.53,1.97-4.47Zm-3.31,10.36c9.26-6.81,9.76-16.85,9.79-17.41,2.01,11.93-9.35,17.22-9.79,17.41Z"/>
          <path class="cls-1" d="M603.08,345.11c-.05-.01-.1-.03-.16-.04l-.49-.14c-1-.18-1.52,.26-1.52,.26,2.96,2.67,1.1,7.01,.97,7.32,1.3-5.4-3.61-8.68-3.61-8.68-5.81-.76-8.39,5.4-7.04,10.09l.93,3.24c3.29,.78,6.49,1.93,9.57,3.46h0l3.12-2.84c3.82-3.49,4.75-10.71-1.77-12.68Zm-6.34,1.49c-.05,.19-.74,2.83,1.93,5.13-.19-.07-3.85-1.59-1.93-5.13Zm4.08,9.9c.06-.43,.79-6.12-3.38-9.71,.29,.15,5.98,3.16,3.38,9.71Z"/>
          <path class="cls-1" d="M640.45,385.14v-.04c-.15-.47-.81-2.41-2.35-3.21,0,0,1.11-.04,1.74,1.12l-.43-1.48c-1.92-6.69-9.23-5.75-12.73-1.88l-3.35,3.7c1.21,2.8,2.13,5.69,2.74,8.63l4.52,1.28c4.96,1.4,11.57-1.59,9.86-8.13Zm-14.97-.06c.03-.19,.59-4.12,4.49-3.14-.14,0-2.9-.05-4.49,3.14Zm8.25-.47c-.16-.09-3.68-1.85-7.64,1.27,.12-.19,3.23-4.94,7.64-1.27Zm-7.03,4.71s5.69,2.15,10.21-1.35c-.14,.19-4.27,5.27-10.21,1.35Z"/>
        </g>
        <path class="cls-1" d="M762.38,627.32c-.75,1.54-1.51,3.08-2.29,4.6-13.87,27.28-31.91,52.09-53.79,73.97-26.79,26.79-58,47.83-92.73,62.53-35.97,15.21-74.18,22.92-113.56,22.92s-77.59-7.71-113.56-22.92c-34.74-14.7-65.95-35.74-92.74-62.53-21.88-21.88-39.91-46.69-53.79-73.97-.88-1.73-1.75-3.47-2.59-5.22-1.66,.6-3.31,1.2-4.96,1.8,.55,1.15,1.11,2.29,1.69,3.43,48.66,97.61,149.47,164.66,265.96,164.66s217.3-67.05,265.96-164.66c.46-.93,.93-1.87,1.38-2.8-1.65-.6-3.31-1.2-4.95-1.8Z"/>
        <path class="cls-1" d="M689.8,600.91c-6.75,11.01-14.44,21.38-22.96,31.01-40.77,46.15-100.41,75.26-166.84,75.26s-126.06-29.1-166.84-75.26c-8.65-9.77-16.44-20.32-23.27-31.51-1.69,.61-3.37,1.21-5.05,1.82,6.3,10.44,13.42,20.35,21.36,29.69,4.02,4.74,8.27,9.34,12.7,13.78,20.92,20.92,45.28,37.35,72.42,48.82,28.09,11.88,57.93,17.91,88.68,17.91s60.59-6.03,88.68-17.91c27.13-11.47,51.49-27.9,72.42-48.82,4.44-4.44,8.67-9.03,12.7-13.78,7.81-9.18,14.84-18.92,21.05-29.18-1.68-.61-3.37-1.22-5.04-1.84Z"/>
        <g>
          <path class="cls-1" d="M274.47,619.98c13.87-18.74,12.84-61.52,10.16-79.62-15.13,11.26-27.86,33.37-21.64,57.14-13.74-19.85-44.38-36.89-54.9-40.88,10.67,41.38,44.63,65.57,66.38,63.36Z"/>
          <path class="cls-1" d="M251.5,567.75c12.22-10.77,25.6-43.42,25.92-69.49-19.66,10.68-32.98,31-29.45,57.44-8.38-21.01-21.79-41.19-44.97-55.05,2.42,36.48,28,65.13,48.5,67.1Z"/>
          <path class="cls-1" d="M241.08,516.43c13.66-6.89,33.96-34.86,38.32-62.83-21.37,8.28-36.45,25.34-38.86,51.82-3.33-21.62-10.38-41.93-33-60.94-3.52,34.28,15.82,65.81,33.54,71.95Z"/>
          <path class="cls-1" d="M241.65,462.67c13.92-3.24,39.25-25.19,48.17-52.59-21.93,4.93-38.36,17.55-46.53,43.29,1.6-24.63-3.02-43.62-19.75-63.78-9.69,32.62,4.67,64.85,18.11,73.08Z"/>
          <path class="cls-1" d="M251.29,415.23c12.02-.06,41.44-14.66,55.22-41.56-22.37,1.48-39.08,10.34-52.21,33.93,7.13-26.95,3.89-44.28-7.29-64.38-15.15,29.56-6.07,62.58,4.28,72.01Z"/>
          <path class="cls-1" d="M270.95,368.6c11.34,2.26,41.91-5.82,60.1-28.52-21.38-2.93-38.85,2.21-55.79,21.91,11.93-24.04,12.22-41,5.56-62.12-19.99,24.95-17.81,57.85-9.87,68.73Z"/>
          <path class="cls-1" d="M298.16,330.42c20.85,.71,36.73-21.74,42.88-41.86-22.18,3.01-45.52,21.1-42.88,41.86Z"/>
        </g>
        <g>
          <path class="cls-1" d="M725.53,619.98c-13.87-18.74-12.84-61.52-10.16-79.62,15.13,11.26,27.86,33.37,21.64,57.14,13.74-19.85,44.38-36.89,54.9-40.88-10.67,41.38-44.63,65.57-66.38,63.36Z"/>
          <path class="cls-1" d="M748.5,567.75c-12.22-10.77-25.6-43.42-25.92-69.49,19.66,10.68,32.98,31,29.45,57.44,8.38-21.01,21.79-41.19,44.97-55.05-2.42,36.48-28,65.13-48.5,67.1Z"/>
          <path class="cls-1" d="M758.92,516.43c-13.66-6.89-33.96-34.86-38.32-62.83,21.37,8.28,36.45,25.34,38.86,51.82,3.33-21.62,10.38-41.93,33-60.94,3.52,34.28-15.82,65.81-33.54,71.95Z"/>
          <path class="cls-1" d="M758.35,462.67c-13.92-3.24-39.25-25.19-48.17-52.59,21.93,4.93,38.36,17.55,46.53,43.29-1.6-24.63,3.02-43.62,19.75-63.78,9.69,32.62-4.67,64.85-18.11,73.08Z"/>
          <path class="cls-1" d="M748.71,415.23c-12.02-.06-41.44-14.66-55.22-41.56,22.37,1.48,39.08,10.34,52.21,33.93-7.13-26.95-3.89-44.28,7.29-64.38,15.15,29.56,6.07,62.58-4.28,72.01Z"/>
          <path class="cls-1" d="M729.05,368.6c-11.34,2.26-41.91-5.82-60.1-28.52,21.38-2.93,38.85,2.21,55.79,21.91-11.93-24.04-12.22-41-5.56-62.12,19.99,24.95,17.81,57.85,9.87,68.73Z"/>
          <path class="cls-1" d="M701.84,330.42c-20.85,.71-36.73-21.74-42.88-41.86,22.18,3.01,45.52,21.1,42.88,41.86Z"/>
        </g>
        <g>
          <path class="cls-1" d="M290.94,668.94l-3.72-4.83,4.15-10.14-1.89-2.45-7.5,5.79-3.18-4.13,20.62-15.89,6.09,7.89c1.76,2.29,2.48,4.52,2.15,6.71-.33,2.18-1.41,3.98-3.23,5.38-1.38,1.06-2.88,1.65-4.52,1.78-1.64,.12-3.23-.31-4.76-1.29l-4.18,11.19Zm10.71-20.84l-2.88-3.74-5.58,4.3,2.6,3.38c.8,1.04,1.68,1.64,2.62,1.78,.94,.15,1.83-.1,2.67-.75,.8-.62,1.26-1.38,1.39-2.29,.13-.91-.15-1.81-.82-2.68Z"/>
          <path class="cls-1" d="M309.55,689.11l-3.76-4.01,2.79-5.27-6.22-6.63-5.49,2.39-3.73-3.98,25.79-10.56,2.92,3.11-12.3,24.95Zm1.41-13.54l4.25-8.14-8.44,3.66,4.19,4.47Z"/>
          <path class="cls-1" d="M317.52,696.42l-3.92-3.33,16.84-19.85,2.63,2.23-1.76,17.86,17.26-4.72,2.69,2.28-16.84,19.85-3.98-3.37,9.55-11.26-12.82,3.4-1.37-1.16,1.27-13.2-9.55,11.26Z"/>
          <path class="cls-1" d="M358.93,727.41l-4.57-3.05,1.52-5.76-7.56-5.05-4.8,3.57-4.54-3.03,22.72-16.13,3.54,2.37-6.32,27.09Zm-1.7-13.5l2.29-8.89-7.39,5.48,5.1,3.4Z"/>
          <path class="cls-1" d="M383.4,729.33l7.49-14.25,4.55,2.39-12.11,23.04-3.15-1.66-4.52-20.4-7.43,14.12-4.55-2.39,12.11-23.04,2.93,1.54,4.67,20.64Z"/>
          <path class="cls-1" d="M390.44,743.53l10.26-23.93,4.82,2.07-10.25,23.93-4.82-2.07Z"/>
          <path class="cls-1" d="M409.28,751.42c-1.93-.68-3.57-1.71-4.93-3.08-1.36-1.38-2.28-2.97-2.76-4.78l4.03-2.43c.84,2.86,2.6,4.76,5.31,5.72,1.02,.36,1.95,.41,2.78,.16,.84-.25,1.39-.77,1.66-1.54,.36-1.02-.08-2.13-1.33-3.34-.15-.15-.84-.76-2.09-1.82-.97-.84-1.78-1.62-2.42-2.35-2.07-2.4-2.65-4.89-1.73-7.48,.73-2.06,2.1-3.49,4.13-4.3,2.06-.82,4.31-.8,6.77,.07,3.19,1.12,5.49,3.18,6.9,6.17l-3.89,2.66c-.42-.94-1.04-1.79-1.88-2.55-.84-.76-1.74-1.3-2.69-1.64-.97-.34-1.82-.4-2.54-.17-.72,.23-1.2,.7-1.45,1.41-.34,.95,.04,2,1.14,3.13l2.05,1.92c1.17,1.06,2.01,1.84,2.53,2.35,2.32,2.33,2.99,4.86,2.03,7.59-.77,2.19-2.23,3.69-4.39,4.5-2.15,.81-4.57,.74-7.25-.2Z"/>
          <path class="cls-1" d="M429.6,757.33l-5.06-1.24,6.2-25.28,5.06,1.24-2.48,10.09,10.61,2.6,2.48-10.09,5.06,1.24-6.2,25.28-5.06-1.24,2.53-10.3-10.61-2.6-2.53,10.3Z"/>
          <path class="cls-1" d="M472.94,765.35l-6.04-.84-4.14-10.14-3.07-.43-1.31,9.39-5.16-.72,3.59-25.78,9.87,1.37c2.86,.4,4.94,1.49,6.23,3.29,1.29,1.79,1.78,3.83,1.46,6.11-.24,1.72-.9,3.2-1.99,4.44-1.09,1.24-2.52,2.04-4.3,2.41l4.85,10.92Zm-6.95-22.38l-4.68-.65-.97,6.98,4.22,.59c1.3,.18,2.34,0,3.12-.56,.78-.56,1.24-1.36,1.38-2.4,.14-1-.07-1.87-.61-2.61-.55-.74-1.37-1.19-2.46-1.34Z"/>
          <path class="cls-1" d="M478.6,765.64l1.77-25.97,5.24,.36-1.77,25.97-5.24-.36Z"/>
          <path class="cls-1" d="M506.5,766.39l-5.21,.17-.85-26.02,17.36-.57,.16,4.93-12.15,.4,.19,5.84,10.67-.35,.16,4.89-10.67,.35,.34,10.35Z"/>
          <path class="cls-1" d="M536.37,764.48c-3.84,.51-7.2-.33-10.07-2.53-2.9-2.22-4.6-5.19-5.1-8.91-.5-3.75,.37-7.1,2.6-10.05,2.26-2.95,5.27-4.68,9.05-5.19s7.12,.38,10.05,2.64c2.95,2.26,4.68,5.24,5.17,8.94,.49,3.7-.39,7.02-2.65,9.95-2.24,2.93-5.26,4.65-9.05,5.15Zm6.33-14.38c-.32-2.37-1.36-4.24-3.13-5.59-1.79-1.37-3.81-1.91-6.04-1.61s-4.04,1.34-5.41,3.14c-1.35,1.77-1.87,3.84-1.55,6.21,.31,2.35,1.34,4.2,3.09,5.56,1.77,1.35,3.79,1.88,6.07,1.57s4.1-1.34,5.45-3.11c1.35-1.77,1.86-3.83,1.52-6.17Z"/>
          <path class="cls-1" d="M553.76,751.65l-3.99-16.03,5.09-1.27,3.9,15.69c.41,1.66,1.15,2.82,2.21,3.48,1.06,.66,2.34,.8,3.84,.42,1.46-.36,2.5-1.09,3.12-2.19,.62-1.1,.73-2.46,.33-4.08l-3.9-15.69,5.13-1.28,3.99,16.03c.79,3.17,.45,5.8-1.01,7.91-1.44,2.1-3.58,3.5-6.43,4.21-2.85,.71-5.41,.48-7.69-.7-2.28-1.18-3.81-3.35-4.6-6.52Z"/>
          <path class="cls-1" d="M595.94,738.5l-5.55-15.11,4.83-1.77,8.97,24.44-3.34,1.23-18.16-10.33,5.5,14.98-4.83,1.77-8.97-24.44,3.11-1.14,18.44,10.38Z"/>
          <path class="cls-1" d="M620.65,738.33l-8.92,4.45-11.61-23.3,9.11-4.54c3.51-1.75,6.78-2.07,9.8-.95,3.04,1.11,5.46,3.46,7.25,7.05,1.79,3.59,2.18,6.93,1.17,10-.98,3.09-3.25,5.52-6.8,7.29Zm-13.64-16.7l7.15,14.34,4.48-2.23c2-.99,3.21-2.45,3.64-4.37,.43-1.92,.13-3.92-.91-6-1.01-2.02-2.41-3.43-4.2-4.24-1.79-.81-3.69-.72-5.69,.28l-4.48,2.23Z"/>
          <path class="cls-1" d="M655.02,718.36l-4.65,2.93-4.64-3.74-7.69,4.84,1.31,5.84-4.62,2.91-5.47-27.32,3.61-2.27,22.16,16.81Zm-13.02-3.95l-7.18-5.72,2,8.98,5.19-3.27Z"/>
          <path class="cls-1" d="M661.21,713.63l-12.61-16.79-5.94,4.46-3.03-4.03,16.11-12.1,3.03,4.03-5.94,4.46,12.61,16.79-4.22,3.17Z"/>
          <path class="cls-1" d="M675.21,702.6l-16.95-19.75,3.98-3.42,16.95,19.75-3.98,3.42Z"/>
          <path class="cls-1" d="M693.88,685.93c-2.72,2.76-5.9,4.14-9.52,4.16-3.65,.02-6.82-1.29-9.49-3.93-2.69-2.66-4.05-5.84-4.09-9.54-.02-3.72,1.31-6.93,3.98-9.64s5.86-4.06,9.57-4.07c3.72-.02,6.91,1.28,9.56,3.91,2.66,2.62,3.99,5.79,3.99,9.49,.02,3.69-1.31,6.89-4,9.61Zm-3.8-15.25c-1.7-1.68-3.67-2.52-5.89-2.51-2.26,.01-4.18,.82-5.76,2.42-1.59,1.6-2.37,3.53-2.36,5.79,.01,2.23,.87,4.18,2.57,5.86,1.69,1.67,3.63,2.5,5.84,2.51,2.23-.01,4.15-.84,5.76-2.47s2.42-3.57,2.41-5.79c-.01-2.22-.87-4.16-2.57-5.81Z"/>
          <path class="cls-1" d="M710.2,651.25l-12.67-9.93,3.17-4.05,20.49,16.06-2.2,2.8-20.88,.77,12.56,9.85-3.17,4.05-20.49-16.06,2.04-2.61,21.15-.88Z"/>
        </g>
      </g>
    </g>
  </g>
</svg>